<svg width="83" height="84" viewBox="0 0 83 84" fill="none" xmlns="http://www.w3.org/2000/svg">
<path d="M53.7978 81.8081C26.0745 89.0788 -4.35545 58.3545 3.21026 30.6845C10.8059 2.93127 52.6836 -7.85964 72.7707 12.4369C92.9385 32.8124 81.5439 74.5302 53.7978 81.8081Z" fill="white"/>
<path d="M34.115 71.0795L33.2 70.5877C27.7197 67.6364 0.369141 51.8829 0.369141 31.4426C0.369141 20.6786 7.78165 14.4404 15.1296 13.0337C19.3545 12.2238 24.0549 13.1234 29.4899 15.7787L27.7949 19.2439C23.1399 16.9675 19.2273 16.1779 15.8527 16.8219C10.0677 17.9278 4.22581 22.8788 4.22581 31.4406C4.22581 48.7812 27.3957 62.9486 34.115 66.6896C40.8343 62.9486 64.0041 48.7812 64.0041 31.4406C64.0041 22.8788 58.1623 17.9278 52.3773 16.82C46.6983 15.7305 39.0978 18.8448 29.7608 26.076L27.4034 23.0254C37.6477 15.099 46.3011 11.7446 53.1004 13.0356C60.4483 14.4385 67.8608 20.6767 67.8608 31.4406C67.8608 51.881 40.5103 67.6364 35.03 70.5858L34.115 71.0795ZM49.5416 41.3513H45.685V35.5663H39.9V31.7096H45.685V25.9246H49.5416V31.7096H55.3266V35.5663H49.5416V41.3513Z" fill="#21201F"/>
<path fill-rule="evenodd" clip-rule="evenodd" d="M34.1153 71.4987L33.0252 70.9129C30.2738 69.4312 22.0357 64.7381 14.4807 57.8463C6.93875 50.9664 0 41.8247 0 31.4426C0 20.4755 7.56517 14.106 15.0602 12.6712C19.3898 11.8412 24.1736 12.7706 29.6519 15.447L29.9838 15.6092L27.9643 19.7377L27.6327 19.5756C23.0153 17.3175 19.1875 16.5613 15.9219 17.1846C10.2867 18.2618 4.59498 23.0796 4.59498 31.4406C4.59498 39.9506 10.2881 47.7347 16.9023 53.8948C23.3876 59.9349 30.6858 64.3461 34.115 66.2668C37.5442 64.3461 44.8424 59.9349 51.3277 53.8948C57.9419 47.7347 63.635 39.9506 63.635 31.4406C63.635 23.0796 57.9432 18.2618 52.3078 17.1826C49.5623 16.6559 46.3179 17.1394 42.5807 18.6694C38.8447 20.1988 34.6396 22.7645 29.9869 26.3679L29.6947 26.5942L26.8857 22.9592L27.1775 22.7334C37.4393 14.7935 46.2054 11.3507 53.1693 12.673C60.6645 14.104 68.23 20.4736 68.23 31.4406C68.23 41.8228 61.2912 50.9649 53.7493 57.8451C46.1943 64.7371 37.9565 69.4301 35.2049 70.9109L34.1153 71.4987ZM35.03 70.5858C40.5103 67.6364 67.8608 51.881 67.8608 31.4406C67.8608 20.6767 60.4483 14.4385 53.1004 13.0357C46.3659 11.7569 37.8124 15.0355 27.6958 22.8001C27.6294 22.8511 27.5629 22.9023 27.4963 22.9536C27.4653 22.9775 27.4344 23.0014 27.4034 23.0254L29.7604 26.0755C29.8145 26.0336 29.8689 25.9924 29.9228 25.9508C39.1858 18.8088 46.7312 15.7368 52.3773 16.82C58.1623 17.9278 64.0042 22.8788 64.0042 31.4406C64.0042 48.7812 40.8343 62.9486 34.115 66.6896C27.3957 62.9486 4.22582 48.7812 4.22582 31.4406C4.22582 22.8788 10.0677 17.9278 15.8527 16.8219C19.2273 16.1779 23.1399 16.9675 27.7949 19.2439L29.4899 15.7787C29.3788 15.7244 29.268 15.6709 29.1575 15.6181C23.8629 13.0873 19.2682 12.2404 15.1296 13.0337C7.78167 14.4405 0.369155 20.6786 0.369155 31.4426C0.369155 51.8829 27.7197 67.6364 33.2 70.5877L34.115 71.0795L35.03 70.5858ZM49.9108 41.7205H45.3158V35.9355H39.5308V31.3405H45.3158V25.5555H49.9108V31.3405H55.6958V35.9355H49.9108V41.7205ZM49.5417 31.7096V25.9246H45.685V31.7096H39.9V35.5663H45.685V41.3513H49.5417V35.5663H55.3267V31.7096H49.5417Z" fill="#21201F"/>
</svg>
