<svg width="362" height="112" viewBox="0 0 362 112" fill="none" xmlns="http://www.w3.org/2000/svg">
<mask id="mask0" mask-type="alpha" maskUnits="userSpaceOnUse" x="0" y="0" width="112" height="112">
<path fill-rule="evenodd" clip-rule="evenodd" d="M72.9521 0C84.196 0 89.8165 0 95.8692 1.91333C102.477 4.31853 107.681 9.5228 110.087 16.1308C112 22.1825 112 27.8049 112 39.0479V72.9521C112 84.196 112 89.8165 110.087 95.8692C107.681 102.477 102.477 107.681 95.8692 110.086C89.8165 112 84.196 112 72.9521 112H39.0479C27.804 112 22.1825 112 16.1308 110.086C9.5228 107.681 4.31853 102.477 1.91333 95.8692C0 89.8165 0 84.196 0 72.9521V39.0479C0 27.8049 0 22.1825 1.91333 16.1308C4.31853 9.5228 9.5228 4.31853 16.1308 1.91333C22.1825 0 27.804 0 39.0479 0H72.9521Z" fill="#C4C4C4"/>
</mask>
<g mask="url(#mask0)">
<rect x="0.000488281" y="56.0002" width="56.0009" height="56.0009" fill="url(#paint0_linear)"/>
<rect x="56.002" y="56.0005" width="56.0009" height="56.0009" fill="url(#paint1_radial)"/>
<rect width="112.002" height="56.0009" fill="url(#paint2_linear)"/>
</g>
<mask id="mask1" mask-type="alpha" maskUnits="userSpaceOnUse" x="250" y="0" width="112" height="112">
<path fill-rule="evenodd" clip-rule="evenodd" d="M322.952 0C334.196 0 339.817 0 345.869 1.91333C352.477 4.31853 357.681 9.5228 360.087 16.1308C362 22.1825 362 27.8049 362 39.0479V72.9521C362 84.196 362 89.8165 360.087 95.8692C357.681 102.477 352.477 107.681 345.869 110.086C339.817 112 334.196 112 322.952 112H289.048C277.804 112 272.183 112 266.131 110.086C259.523 107.681 254.319 102.477 251.913 95.8692C250 89.8165 250 84.196 250 72.9521V39.0479C250 27.8049 250 22.1825 251.913 16.1308C254.319 9.5228 259.523 4.31853 266.131 1.91333C272.183 0 277.804 0 289.048 0H322.952Z" fill="#C4C4C4"/>
</mask>
<g mask="url(#mask1)">
<g clip-path="url(#clip0)">
<path d="M250 0H362V112H250V0Z" fill="#F1F0ED"/>
<path fill-rule="evenodd" clip-rule="evenodd" d="M251.461 -10.4309C243.438 -11.8191 236.003 -11.773 229.354 -10.8331C228.294 -8.56021 227.511 -6.10893 227.063 -3.52117L214.114 71.3145C212.16 82.6106 217.016 93.5043 225.717 99.8048C233.801 96.7287 242.484 92.2214 251.658 85.7542C294.62 55.4761 304.558 -1.24347 251.461 -10.4309Z" fill="#3F4042"/>
<path fill-rule="evenodd" clip-rule="evenodd" d="M334.72 35.8541C339.298 9.39298 330.541 -7.19264 314.166 -17.9173L260.624 -27.1815C247.413 -29.4674 234.746 -22.4355 229.348 -10.8337C235.998 -11.7799 243.426 -11.8208 251.455 -10.4315C304.546 -1.24516 294.608 55.4744 251.651 85.7598C242.478 92.2271 233.789 96.727 225.711 99.8105C229.182 102.325 233.263 104.109 237.772 104.889L267.765 110.079C302.55 96.5136 329.068 68.5182 334.72 35.8541Z" fill="#5780EA"/>
<path d="M335.614 103.42H331.379V116.126H375.145C382.162 116.126 387.851 110.438 387.851 103.42V103.42H351.144H335.614Z" fill="#5C5A57"/>
<path d="M317.261 75.1838H337.026L351.145 103.42C351.145 110.437 345.456 116.126 338.438 116.126H317.261V75.1838Z" fill="#21201F"/>
<path d="M322.655 -9.45718C323.118 -14.2763 327.399 -17.8079 332.218 -17.3453C337.037 -16.8827 340.569 -12.601 340.106 -7.78195L322.655 -9.45718ZM314.857 71.7779L322.655 -9.45718L340.106 -7.78195L332.308 73.4532L314.857 71.7779Z" fill="#FCB900"/>
<path d="M322.626 55.1343L327.85 0.0287038" stroke="#FAF9F7" stroke-width="6.74295" stroke-linecap="round"/>
<path fill-rule="evenodd" clip-rule="evenodd" d="M324.038 129.397C331.523 129.395 337.589 117.26 337.589 102.291C337.589 87.3202 331.521 75.1841 324.036 75.1841C324.016 75.1841 323.996 75.1842 323.976 75.1843H315.971C307.951 75.1843 301.449 87.3204 301.449 102.291C301.449 117.262 307.951 129.398 315.971 129.398H324.038V129.397Z" fill="#42413E"/>
<ellipse cx="326.298" cy="102.29" rx="6.7767" ry="13.5534" fill="#EDECE8"/>
<path d="M392.087 100.279C394.321 100.279 396.133 102.09 396.133 104.325C396.133 106.559 394.321 108.371 392.087 108.371V100.279ZM335.614 73.2651V69.2194H338.016L339.166 71.3278L335.614 73.2651ZM313.025 77.3109C310.791 77.3109 308.98 75.4996 308.98 73.2651C308.98 71.0307 310.791 69.2194 313.025 69.2194V77.3109ZM353.305 104.187L352.027 108.025L353.305 104.187ZM351.329 102.076L347.778 104.013L351.329 102.076ZM352.319 103.601L355.077 100.641L352.319 103.601ZM392.087 108.371H355.118V100.279H392.087V108.371ZM347.778 104.013L332.063 75.2025L339.166 71.3278L354.881 100.139L347.778 104.013ZM335.614 77.3109H313.025V69.2194H335.614V77.3109ZM355.118 108.371C354.467 108.371 353.212 108.42 352.027 108.025L354.583 100.348C354.336 100.266 354.175 100.264 354.263 100.269C354.311 100.272 354.397 100.275 354.548 100.277C354.7 100.279 354.878 100.279 355.118 100.279V108.371ZM354.881 100.139C354.996 100.349 355.081 100.505 355.156 100.638C355.23 100.77 355.274 100.843 355.3 100.885C355.346 100.959 355.267 100.819 355.077 100.641L349.561 106.561C348.647 105.71 348.089 104.585 347.778 104.013L354.881 100.139ZM352.027 108.025C351.11 107.72 350.269 107.221 349.561 106.561L355.077 100.641C354.935 100.509 354.767 100.409 354.583 100.348L352.027 108.025Z" fill="#FCB900"/>
</g>
</g>
<path fill-rule="evenodd" clip-rule="evenodd" d="M216.159 58.6985L141 58.6982L141 52.6982L216.159 52.6985L216.159 58.6985Z" fill="#21201F"/>
<path fill-rule="evenodd" clip-rule="evenodd" d="M211.916 55.6982L193.46 37.2426L197.703 33L220.401 55.6982L197.703 78.3964L193.46 74.1538L211.916 55.6982Z" fill="#21201F"/>
<defs>
<linearGradient id="paint0_linear" x1="87.9138" y1="5.75512" x2="113.236" y2="113.553" gradientUnits="userSpaceOnUse">
<stop stop-color="#FEFEFE"/>
<stop offset="0.270489" stop-color="#F9F8F7"/>
<stop offset="1" stop-color="#EAE3CF"/>
</linearGradient>
<radialGradient id="paint1_radial" cx="0" cy="0" r="1" gradientUnits="userSpaceOnUse" gradientTransform="translate(77.1617 161.503) rotate(-87.0199) scale(131.58)">
<stop offset="0.403945" stop-color="#302F28"/>
<stop offset="0.566376" stop-color="#282724"/>
<stop offset="0.6887" stop-color="#272623"/>
<stop offset="0.890914" stop-color="#242321"/>
</radialGradient>
<linearGradient id="paint2_linear" x1="0" y1="0" x2="82.3003" y2="180.193" gradientUnits="userSpaceOnUse">
<stop stop-color="#FCE000"/>
<stop offset="0.47222" stop-color="#FAAA00"/>
<stop offset="1" stop-color="#FCE000"/>
</linearGradient>
<clipPath id="clip0">
<path d="M250 0H362V112H250V0Z" fill="white"/>
</clipPath>
</defs>
</svg>
