<svg width="83" height="83" viewBox="0 0 83 83" fill="none" xmlns="http://www.w3.org/2000/svg"><g clip-path="url(#clip0)"><g clip-path="url(#clip1)"><path d="M79.387 56.327c-11.114 26.206-52.733 35.295-68.59 13.396C-5.06 47.824-5.492 7.585 24.342 1.703 54.176-4.18 90.501 30.12 79.387 56.326z" fill="#FFDE40"/><path fill-rule="evenodd" clip-rule="evenodd" d="M53.933 57.625l-21.806 1.412-.291-4.49 21.806-1.413.29 4.49z" fill="#21201F"/><path fill-rule="evenodd" clip-rule="evenodd" d="M41.883 23.173c-3.29 2.844-6.311 5.986-8.576 8.72l-1.436 1.732-3.465-2.872 1.436-1.732c3.263-3.938 7.978-8.655 12.95-12.35l3.591 1.806v38.938h-4.5V23.172z" fill="#21201F"/><path d="M41.498 73.664c-20.689 0-34.588-13.9-34.588-34.588 0-20.69 13.9-34.589 34.588-34.589 20.69 0 34.589 13.9 34.589 34.589 0 20.688-13.9 34.588-34.589 34.588zm0-64.853c-18.102 0-30.264 12.164-30.264 30.265 0 18.1 12.162 30.264 30.264 30.264 18.103 0 30.265-12.166 30.265-30.264 0-18.099-12.162-30.265-30.265-30.265z" fill="#21201F"/></g></g><defs><clipPath id="clip0"><path fill="#fff" d="M0 0h83v83H0z"/></clipPath><clipPath id="clip1"><path fill="#fff" d="M0 0h83v83H0z"/></clipPath></defs></svg>