<svg width="218" height="319" viewBox="0 0 218 319" fill="none" xmlns="http://www.w3.org/2000/svg"><path fill-rule="evenodd" clip-rule="evenodd" d="M183.556 158.553c30.734-33.987 43.329-86.948 12.664-156.261l3.653-1.597c31.193 70.505 18.596 125.184-13.349 160.51-23.237 25.696-56.576 40.993-90.26 44.717 6.675 10.924 10.322 23.561 12.093 36.371 3.543 25.636-.354 52.376-2.691 68.41-.15 1.023-.292 2.003-.427 2.937l-3.95-.561c.132-.92.272-1.883.418-2.885 2.34-16.074 6.16-42.305 2.696-67.361-1.812-13.114-5.599-25.792-12.582-36.487-10.971.88-21.934.528-32.55-1.097-22.116-3.385-37.24-7.907-46.486-12.54-4.606-2.308-7.91-4.72-9.854-7.167-1.978-2.49-2.712-5.28-1.473-7.903 1.151-2.436 3.753-4.134 6.953-5.247 3.268-1.137 7.52-1.795 12.55-1.896 10.071-.202 23.57 1.825 39.255 7.116 15.28 5.154 26.076 13.887 33.599 24.577 33.449-3.227 66.744-18.204 89.741-43.636zM89.15 202.562c-7.032-9.222-16.802-16.669-30.217-21.194-15.35-5.178-28.381-7.097-37.892-6.906-4.763.096-8.566.719-11.311 1.674-2.813.978-4.184 2.183-4.66 3.189-.386.817-.4 2.005.993 3.759 1.428 1.796 4.146 3.892 8.519 6.083 8.71 4.365 23.367 8.805 45.296 12.162 9.556 1.462 19.4 1.862 29.272 1.233z" fill="#21201F"/><path fill-rule="evenodd" clip-rule="evenodd" d="M89.217 301.738l3.152-2.433 10.802 13.824 13.909-10.736 2.448 3.132-17.061 13.17-13.25-16.957z" fill="#21201F"/></svg>