<svg width="81" height="65" viewBox="0 0 81 65" fill="none" xmlns="http://www.w3.org/2000/svg"><path d="M.32.989h53.851v1.554H.321V.99zm0 52.34h53.851v1.554H.321V53.33zm15.016-42.235H80.32v1.555H15.336v-1.555z" fill="#8C0052"/><path d="M1.506 1.348l15.627 10.098-.842 1.306L.663 2.654l.843-1.306zM1.373 53.74l15.034 10.096-1.053 1.142L.32 54.883l1.053-1.142zm52.587 0l26.112 9.716-1.053 1.143-26.112-9.716 1.053-1.143zm.207-52.737L80.32 11.095l-.551 1.301-26.154-9.94.552-1.453z" fill="#8C0052"/><path d="M15.336 63.434H80.32v1.555H15.336v-1.555z" fill="#8C0052"/><path d="M15.336 64.989V11.094h1.554v53.895h-1.554zM.32 54.883V.99h1.554v53.894H.32zm78.446 10.106V11.094h1.554v53.895h-1.554zM52.618 54.883V.99h1.553v53.895h-1.553z" fill="#8C0052"/></svg>