<svg width="83" height="83" viewBox="0 0 83 83" fill="none" xmlns="http://www.w3.org/2000/svg"><g clip-path="url(#clip0)"><path d="M53.073 81.89C24.647 89.345-6.554 57.842 1.203 29.47 8.992 1.015 51.931-10.05 72.527 10.76c20.679 20.892 8.996 63.668-19.454 71.13z" fill="#FFDE40"/><path d="M66.15 12.622c-1.078 6.782-8.617 4.775-11.243 0-2.626-4.775-.609-9.135 2.96-9.952 4.975-1.14 9.363 3.17 8.284 9.952zM29.354 35.98c3.815-4.097 13.76-12.7 23.014-14.338-6.082 12.982-11.353 19.076-2.607 24.44 8.27 5.07 11.523 4.838 10.56 13.514-.772 6.94-1.848 13.334-2.29 15.663M47.376 53.053c-3.225 5.716-7.16 6.185-13.838 4.256-6.31-1.823-9.64-2.746-10.515-2.98m56.821-25.038s-2.837 2.445-5.16 4.459c-3.26 2.824-6.257 2.928-8.694-1.368-1.713-3.02-4.397-8.003-4.397-8.003-2.865 6.564-7.269 14.728-10.657 21.702" stroke="#21201F" stroke-width="4.6" stroke-linecap="square" stroke-linejoin="bevel"/></g><defs><clipPath id="clip0"><path fill="#fff" d="M0 0h83v83H0z"/></clipPath></defs></svg>