<svg width="83" height="84" viewBox="0 0 83 84" fill="none" xmlns="http://www.w3.org/2000/svg"><path d="M53.798 81.808C26.074 89.078-4.355 58.354 3.21 30.684 10.806 2.931 52.684-7.86 72.77 12.438c20.17 20.374 8.775 62.092-18.971 69.37z" fill="#fff"/><path d="M34.115 71.08l-.915-.492C27.72 67.636.37 51.883.37 31.443c0-10.764 7.412-17.003 14.76-18.41 4.225-.81 8.925.09 14.36 2.746l-1.695 3.465c-4.655-2.276-8.568-3.066-11.942-2.422-5.785 1.106-11.627 6.057-11.627 14.619 0 17.34 23.17 31.508 29.889 35.249 6.72-3.741 29.89-17.909 29.89-35.25 0-8.561-5.843-13.512-11.628-14.62-5.679-1.09-13.28 2.025-22.616 9.256l-2.358-3.05c10.245-7.927 18.898-11.281 25.697-9.99 7.348 1.402 14.76 7.64 14.76 18.405 0 20.44-27.35 36.195-32.83 39.145l-.915.493zm15.427-29.73h-3.857v-5.785H39.9V31.71h5.785v-5.785h3.857v5.785h5.785v3.856h-5.785v5.785z" fill="#21201F"/><path fill-rule="evenodd" clip-rule="evenodd" d="M34.115 71.499l-1.09-.586c-2.751-1.482-10.99-6.175-18.544-13.067C6.939 50.966 0 41.825 0 31.443 0 20.475 7.565 14.106 15.06 12.67c4.33-.83 9.114.1 14.592 2.776l.332.162-2.02 4.129-.331-.162c-4.618-2.259-8.445-3.015-11.711-2.391C10.287 18.262 4.595 23.08 4.595 31.44c0 8.51 5.693 16.294 12.307 22.454 6.486 6.04 13.784 10.451 17.213 12.372 3.43-1.92 10.727-6.332 17.213-12.372 6.614-6.16 12.307-13.944 12.307-22.454 0-8.361-5.692-13.18-11.327-14.258-2.746-.527-5.99-.044-9.727 1.486-3.736 1.53-7.941 4.096-12.594 7.699l-.292.226-2.81-3.635.292-.226c10.262-7.94 19.028-11.382 25.992-10.06 7.495 1.431 15.061 7.8 15.061 18.768 0 10.382-6.939 19.524-14.48 26.404-7.556 6.892-15.794 11.585-18.545 13.066l-1.09.588zm.915-.913c5.48-2.95 32.83-18.705 32.83-39.145 0-10.764-7.412-17.003-14.76-18.405-6.734-1.28-15.288 2-25.404 9.764a182.385 182.385 0 00-.293.225l2.357 3.05.163-.124c9.263-7.142 16.808-10.214 22.454-9.131 5.785 1.108 11.627 6.059 11.627 14.62 0 17.341-23.17 31.509-29.889 35.25-6.72-3.741-29.89-17.909-29.89-35.25 0-8.561 5.843-13.512 11.628-14.618 3.374-.644 7.287.146 11.942 2.422l1.695-3.465a41.692 41.692 0 00-.332-.16c-5.295-2.532-9.89-3.379-14.028-2.585C7.782 14.44.37 20.679.37 31.443c0 20.44 27.35 36.193 32.83 39.145l.915.492.915-.494zM49.91 41.72h-4.594v-5.785H39.53V31.34h5.785v-5.785h4.595v5.785h5.785v4.595H49.91v5.785zm-.368-10.011v-5.785h-3.857v5.785H39.9v3.856h5.785v5.785h3.857v-5.785h5.785V31.71h-5.785z" fill="#21201F"/></svg>