<svg width="83" height="83" viewBox="0 0 83 83" fill="none" xmlns="http://www.w3.org/2000/svg"><g clip-path="url(#clip0)"><path d="M27.6 80.794C.526 71.502-7.779 29.12 13.82 10.298 35.49-8.576 76.28 5.62 81.754 33.608c5.497 28.1-27.057 56.485-54.154 47.186z" fill="#FFDE40"/><path fill-rule="evenodd" clip-rule="evenodd" d="M59.508 62.432v10.86h4.6v-9.079c-1.64-.298-3.2-.878-4.6-1.781zm9.341 1.827v9.033h4.6V62.481a12.774 12.774 0 01-4.6 1.778zm-23.636 9.033V58.32h-4.6v14.973h4.6zm9.552 0V58.32h-4.6v14.973h4.6zm28.235 0V58.32h-4.6v14.973H83zm-47.13 0V58.32h-4.6v14.973h4.6z" fill="#21201F"/><path d="M54.873 39.66l-5.475 5.95c-2.619 2.619-6.19 4.047-9.998 4.047H26.308c-.952-3.808-4.047-6.189-8.331-6.189-5 0-8.57 3.57-8.57 8.57 0 4.998 3.57 8.569 8.57 8.569 4.284 0 7.379-2.38 8.331-6.189H39.4c5 0 9.76-1.904 13.33-5.475l5.475-6.189-3.332-3.094zM17.977 56.084c-2.38 0-4.047-1.428-4.047-4.046 0-2.38 1.428-4.047 4.047-4.047 2.38 0 4.046 1.428 4.046 4.047-.238 2.38-1.666 4.046-4.046 4.046z" fill="#21201F"/><path d="M67.239 43.468c-2.142-15.235-4.919-22.997-8.251-32.756h4.999V6.189h-6.665C56.132 2.856 55.179.952 55.179.714L54.941 0l-4.523 1.666.239.714c0 .238 8.489 17.522 11.821 42.04-2.856 1.428-4.523 4.046-4.523 7.617 0 4.999 3.57 8.57 8.57 8.57 4.999 0 8.57-3.571 8.57-8.57.237-4.999-3.095-8.331-7.856-8.57zm-.476 12.616c-2.38 0-4.047-1.428-4.047-4.047 0-2.38 1.428-4.047 4.047-4.047 2.38 0 4.046 1.429 4.046 4.047 0 2.38-1.666 4.047-4.046 4.047z" fill="#21201F"/></g><defs><clipPath id="clip0"><path fill="#fff" d="M0 0h83v83H0z"/></clipPath></defs></svg>