<svg width="83" height="83" viewBox="0 0 83 83" fill="none" xmlns="http://www.w3.org/2000/svg"><g clip-path="url(#clip0)"><path d="M53.073 81.89C24.647 89.345-6.554 57.842 1.203 29.47 8.992 1.015 51.931-10.05 72.527 10.76c20.679 20.892 8.996 63.668-19.454 71.13z" fill="#FFDE40"/><path fill-rule="evenodd" clip-rule="evenodd" d="M72.933 0l10.082 11.412-3.447 3.046L69.486 3.046 72.933 0zM16.165.989L35.329 22.98c6.748-5.485 13.143-6.355 17.08-5.287l15.42-11.547 2.758 3.682-16.403 12.283-2.34.249c-1.659-.763-6.907-1.207-13.491 4.09l13.792 15.828c2.619-2.445 4.118-4.47 4.965-6.365.925-2.072 1.161-4.192.968-6.915l.625-1.745 14.105-14.882 3.339 3.165-13.425 14.163c.104 2.8-.223 5.427-1.412 8.09-1.195 2.676-3.187 5.219-6.142 7.959l17.915 20.557-3.468 3.023L12.697 4.01 16.165.989zm15.947 30.788L30.39 33.3a2025.48 2025.48 0 00-10.08 8.976l-2.166 1.941-2.727 2.442 13.939 15.779a11122.917 11122.917 0 015.497-4.83c3.234-2.842 6.828-6.002 9.393-8.268l1.724-1.523 3.045 3.448-1.723 1.523c-2.57 2.27-6.17 5.434-9.403 8.275l-1.94 1.704c-2.402 2.111-4.391 3.859-5.274 4.639l-3.246-.201L10.45 47.988l.201-3.247c.914-.807 2.456-2.189 4.406-3.936l2.183-1.956c2.972-2.662 6.529-5.84 10.102-8.997l1.724-1.523 3.045 3.448z" fill="#21201F"/></g><defs><clipPath id="clip0"><path fill="#fff" d="M0 0h83v83H0z"/></clipPath></defs></svg>