<svg width="83" height="83" viewBox="0 0 83 83" fill="none" xmlns="http://www.w3.org/2000/svg"><g clip-path="url(#clip0)"><path d="M53.073 81.89C24.647 89.345-6.554 57.842 1.203 29.47 8.992 1.015 51.931-10.05 72.527 10.76c20.679 20.892 8.996 63.668-19.454 71.13z" fill="#FFDE40"/><path fill-rule="evenodd" clip-rule="evenodd" d="M23.65 14.22c2.783-1.64 6.385-2.534 10.937-2.534 7.898 0 12.72 3.226 15.267 7.599 2.44 4.189 2.597 9.092 1.994 12.342l-2.233 1.856H33.046v1.965l-2.271 2.271H19.293l-2.236-1.873c-.732-4.121-1.287-10.066.864-15.076 1.105-2.573 2.922-4.896 5.729-6.55zm4.854 18.957v-1.965l2.27-2.27H47.59c.1-2.289-.307-5.047-1.66-7.37-1.64-2.817-4.867-5.343-11.342-5.343-3.972 0-6.723.78-8.63 1.904-1.884 1.11-3.095 2.642-3.862 4.43-1.35 3.143-1.326 7.07-.857 10.614h7.266z" fill="#21201F"/><path fill-rule="evenodd" clip-rule="evenodd" d="M46.875 29.207l.187 2.263c.248 2.997.025 7.531-1.47 11.42-1.515 3.94-4.59 7.705-10.123 7.705-3.292 0-6.622-1.31-9.518-4.048l-1.65-1.56 3.121-3.3 1.65 1.56c2.13 2.015 4.369 2.806 6.397 2.806 2.908 0 4.728-1.79 5.883-4.794 1.175-3.056 1.396-6.855 1.184-9.413l-.188-2.264 4.527-.375z" fill="#21201F"/><path fill-rule="evenodd" clip-rule="evenodd" d="M44.368 51.786l2.557-1.403c5.717 1.132 9.427 5.045 11.74 9.143 2.305 4.083 3.368 8.581 3.752 11.486l.298 2.252-4.503.596-.298-2.252c-.334-2.528-1.27-6.42-3.205-9.85-1.64-2.907-3.895-5.312-6.98-6.447-5.668 10.397-20.775 9.903-26.68.102-8.424 3.494-10.24 11.886-11.032 16.299l-.4 2.235-4.471-.802.4-2.236c.834-4.644 3.186-16.63 15.958-20.473l2.74 1.277c3.826 8.885 16.68 8.905 20.124.073z" fill="#21201F"/></g><defs><clipPath id="clip0"><path fill="#fff" d="M0 0h83v83H0z"/></clipPath></defs></svg>