<svg width="177" height="51" viewBox="0 0 177 51" fill="none" xmlns="http://www.w3.org/2000/svg"><path d="M139.196.893h19.463c4.647 0 9.103 1.841 12.389 5.117a17.45 17.45 0 015.133 12.354v15.059a17.458 17.458 0 01-5.132 12.354 17.523 17.523 0 01-5.685 3.786 17.565 17.565 0 01-6.705 1.33h-19.262c-2.301 0-4.579-.452-6.705-1.33a17.523 17.523 0 01-5.685-3.787 17.458 17.458 0 01-5.132-12.353V18.364c0-9.65 7.642-17.471 17.321-17.471z" fill="#21201F"/><path d="M143.959 29.162v-.848h-5.126v-3.778h9.994v4.493c0 7.073-3.387 11.181-9.793 11.181-6.606 0-10.443-5.19-10.443-14.342 0-8.925 4.187-14.388 11.869-14.388 2.902 0 5.405.766 6.773 1.764v3.889a12.61 12.61 0 00-6.539-1.882c-5.038 0-7.174 3.412-7.174 10.617 0 6.988 1.769 10.563 5.605 10.563 3.665.018 4.834-2.81 4.834-7.269zm25.593.532c0 6.79-3.671 10.533-8.948 10.533-5.277 0-8.947-3.743-8.947-10.482 0-6.79 3.67-10.532 8.947-10.532 5.277 0 8.948 3.726 8.948 10.481zm-4.956 0c0-4.659-1.335-6.704-3.986-6.704-2.651 0-3.988 2.045-3.988 6.755 0 4.66 1.335 6.706 3.988 6.706s3.986-2.063 3.986-6.757z" fill="#fff"/><path d="M13.927 15.67h-2.191c-3.98 0-6.077 2.012-6.077 4.99 0 3.378 1.45 4.943 4.437 6.955l2.452 1.649-7.09 10.563H.181l6.356-9.45c-3.67-2.612-5.722-5.14-5.722-9.45 0-5.39 3.748-9.035 10.87-9.035h7.088V39.83H13.91V15.67h.017zm24.89 3.943v20.216h-4.788v-8.436h-6.407v8.436h-4.788V19.613h4.788v8.002h6.407v-8.002h4.788zm21.636 24.826h-4.437v-4.627h-10.76v4.627h-4.438v-8.395h1.501c1.685-3.378 2.02-9.767 2.02-14.708v-1.73h13.977v16.438h2.137v8.395zm-6.924-21.05h-5.071v.6c0 3.493-.365 9.001-1.702 12.063h6.773V23.39zM71.21 40.212c-6.12 0-9.591-3.41-9.591-10.448 0-6.107 2.786-10.564 8.626-10.564 4.787 0 7.89 2.661 7.89 9.684v2.528h-11.56c.198 3.378 1.533 5.025 5.037 5.025 2.336 0 4.837-.882 6.322-1.896v3.908c-1.4.966-3.654 1.763-6.724 1.763zm-4.636-12.33h6.689v-.397c0-2.528-.73-4.491-3.104-4.491-2.285-.02-3.451 1.677-3.585 4.888zm19.584 2.015v9.933h-4.804V19.613h4.804v9.317l6.782-9.317h4.838l-6.772 9.317 7.69 10.883h-5.448l-7.09-9.917zm12.261-.166c0-6.158 3.187-10.533 9.313-10.533 2.374 0 4.154.4 5.155.964v4.061c-.968-.599-2.787-1.25-4.638-1.25-3.137 0-4.872 2.248-4.872 6.641 0 4.176 1.419 6.837 4.839 6.837 2.017 0 3.469-.515 4.671-1.364v3.894c-1.169.849-2.739 1.248-4.956 1.248-6.409-.017-9.513-3.743-9.513-10.498h.001z" fill="#21201F"/></svg>