<svg width="950" height="258" viewBox="0 0 950 258" fill="none" xmlns="http://www.w3.org/2000/svg"><path d="M493.125 160.074c.41.653.87 1.274 1.372 1.859 5.585 5.281 11.242 10.523 16.843 15.812 3.79 3.574 7.3 7.491 11.345 10.755a90.341 90.341 0 0017.123 11.289 79.01 79.01 0 017.93 4.587 43.185 43.185 0 0017.162 6.582c.192.494.352.918.503 1.34 2.162 5.959 2.218 6.031-2.721 9.861-2.968 2.297-6.119 4.388-9.247 6.478a15.71 15.71 0 01-3.511 1.596 2.012 2.012 0 01-1.595-.184c-2.29-1.867-5.051-2.736-7.691-3.877a166.889 166.889 0 01-32.497-18.948c-11.417-8.353-21.83-17.879-32.266-27.324-4.834-4.381-9.661-8.776-14.361-13.3-1.755-1.699-3.087-3.822-4.899-6.103h-15.239c1.963 1.348 3.192 2.473 4.588 3.111a627.222 627.222 0 0017.273 7.444c2.53 1.037 3.99 4.459 3.072 6.781 2.912 3.343 5.84 6.382 8.433 9.765a67.14 67.14 0 015.585 8.545c2.761 4.962 2.107 7.746-2.082 11.966-3.989 3.99-8.968 6.567-13.747 9.399-9.335 5.536-19.795 7.723-30.247 9.909-9.335 1.962-18.813 2.448-28.299 2.505a156.92 156.92 0 01-38.449-4.213c-4.213-1.037-6.742.383-9.431 2.824a19.987 19.987 0 00-2.394 2.091c-2.824 3.597-6.877 3.079-10.707 3.334a1.417 1.417 0 01-1.013-.239c-2.433-2.513-5.952-2.768-8.84-4.34-1.452-.798-2.849-1.676-4.285-2.505a14.762 14.762 0 00-2.194-1.165 142.659 142.659 0 01-24.733-11.895 176.877 176.877 0 01-17.553-12.478c-4.356-3.447-8.817-6.765-13.285-10.084-1.922-1.436-2.393-1.292-3.597.647-.32.494-.599 1.02-.95 1.483-.337.373-.699.723-1.085 1.045 3.566 3.989 6.566 8.202 10.994 11.17.957.63 1.389 2.106 1.979 3.191.327.614.383 1.38.718 1.978 1.7 3.016 1.444 6-1.069 8.13-4.237 3.598-8.609 7.044-12.933 10.547-.45.389-.949.716-1.484.973-9.431 4.26-18.567 9.206-28.923 11.169-10.755 2.019-21.542 3.494-32.48 2.226-2.833-.327-5.043.208-6.67 2.816a21.806 21.806 0 01-3.575 3.925c-1.101 1.061-2.306 2.25-4.045 1.596-1.332-.51-1.946 1.699-3.471.631-1.029-.718-2.393-.934-3.646-1.357-2.704-.934-5.481-1.675-8.106-2.808-8.84-3.814-18.462-4.436-27.646-6.869a11.158 11.158 0 01-1.38-.264c-6.024-2.464-12.59-1.707-18.223-3.327-.798 1.987-1.173 3.838-2.194 5.178-2.992 3.91-6.327 7.555-9.383 11.425a4.343 4.343 0 01-4.276 1.851 4.142 4.142 0 00-2.083.056c-1.524.726-2.616.342-3.878-.67-.957-.798-2.289-1.062-3.454-1.596-.104-.048-.231-.064-.327-.12-4.325-2.616-8.609-5.281-12.965-7.826-3.192-1.843-6.256-3.989-9.67-5.122-1.939-.646-3.008-2.497-5.338-2.625-1.803-.103-3.662-1.596-5.242-2.8-2.689-2.042-5.585-2.394-8.776-1.795-1.516.279-3.032.574-4.564.742a22.316 22.316 0 01-4.253.183c-4.787-.391-6.08-2.473-4.292-6.909.742-1.842 1.747-3.574 2.553-5.194-.28-.494-.351-.797-.527-.885-5.353-2.776-9.67-7.028-14.712-10.236-6.024-3.837-11.274-8.616-16.643-13.291-3.104-2.697-6.638-4.907-9.846-7.491a20.884 20.884 0 01-6.91-9.239 6.382 6.382 0 01.799-6.382c1.14-1.508 2.353-2.952 3.534-4.428 1.596-2.034 3.152-4.157 4.883-6.087a34.89 34.89 0 015.585-5.41c3.367-2.393 9.439-.885 12.048 2.825 2.441 3.47 4.372 7.331 6.989 10.667a140.133 140.133 0 0010.835 12.182 88.065 88.065 0 008.776 7.22 818.135 818.135 0 0014.178 10.73c2.657 1.963 3.192 1.819 5.298-.622 2.808-3.191 4.731-6.774 4.699-11.169 0-2.96.583-5.992.104-8.856a53.482 53.482 0 00-3.104-10.124c-.75-1.97-.797-3.614.495-5.29 1.787-2.393 3.383-4.882 5.362-7.068 2.624-2.888 5.512-5.544 8.345-8.241 2.058-1.962 3.311-1.97 5.585-.191 1.013.797 1.979 1.651 3.191 2.664a46.22 46.22 0 003.718-3.343c2.25-2.497 4.939-3.063 8.075-2.241 1.596.423 3.239.734 4.827 1.212 6.869 2.074 13.938 2.625 21.055 2.792 9.231.216 18.471.575 27.71.551 5.321 0 10.643-.646 15.957-1.005a5.308 5.308 0 004.643-2.792c.576-.9 1.21-1.761 1.899-2.577 2.051-2.777 2.027-3.048-.694-5.808l1.891-2.96c2.051.933 3.846 1.755 5.649 2.553a9.852 9.852 0 001.962.71c8.824 1.755 17.554 3.988 26.633 4.268 7.572.199 15.159.973 22.691 1.492.239 0 .511.191.694.112 5.585-2.203 10.875.949 16.332.869.591 0 1.261.263 1.763.064 3.638-1.412 7.372-.567 11.075-.622 4.923-.08 9.845-.479 14.76-.702 1.763-.072 3.566.183 5.29-.112 3.869-.655 7.978-.303 11.305-3.191 2.593-2.282 5.793-2.266 8.777-1.173 3.231 1.181 6.231.798 9.399 0 3.558-.862 7.18-1.428 10.938-2.146.99 2.353 3.99 3.989 1.484 7.18a65.16 65.16 0 0013.811.423c9.439-.878 18.726-2.777 28.092-3.989 5.649-.734 11.21-1.835 16.812-2.745a6.81 6.81 0 004.507-2.52 30.846 30.846 0 017.699-6.774 7.13 7.13 0 015.745-1.045c1.626.338 3.193.913 4.652 1.707 5.194 3.088 10.93 4.532 16.755 5.665 2.337.454 4.587 2.05 7.18.901.319-.143.957.526 1.476.798.519.271 1.109.638 1.596.566 4.787-.701 9.287.966 13.875 1.859.534.221 1.083.402 1.643.543 3.989.191 7.979.263 12.016.486 1.755.104 3.494.567 5.25.695 5.585.391 11.098 1.531 16.619-.224a4.07 4.07 0 012.059-.271c2.92.749 5.816 1.596 8.776.175a.518.518 0 01.351-.064c3.614 1.437 7.261-.063 10.883.088 2.09.088 4.675.957 6.143 0 1.955-1.213 3.519-.255 5.186-.558a11.085 11.085 0 004.093-1.955c4.38-3.031 4.269-2.936 8.697-.191 1.237.798 3.143.694 4.731.646 3.064-.088 6.12-.431 9.04-.654 3.758 6.382 3.55 7.18-3.399 12.453 1.979 2.178 3.941 4.332 5.896 6.495 2.306 2.545 4.708 5.01 6.878 7.666a8.44 8.44 0 007.979 3.423 203.937 203.937 0 0138.735.256c4.923.478 9.814 1.268 14.737 1.746 2.92.28 5.88.128 8.776.336 6.383.454 12.766 1.02 19.1 1.539l7.285.614c-1.548-4.786-2.8-9.301-4.5-13.666-2.09-5.369-.335-9.023 4.189-12.094 2.929-1.995 5.512-4.484 8.247-6.758 2.074-1.723 4.327-2.84 7.135-2.609 13.351 1.133 26.696 2.322 40.061 3.303a812.086 812.086 0 0031.241 1.803c6.745.256 13.51-.055 20.269 0 2.14.03 4.267.209 6.381.535 2.392.351 3.026 1.253 2.722 3.686-.436 3.447-2.801 5.496-5.728 6.685-7.498 3.056-15.207 5.274-23.459 5.042-12.453-.343-24.906-.382-37.352-.877-6.745-.272-13.464-1.237-20.189-1.843-2.227-.208-4.466-.288-6.924-.439a5.68 5.68 0 00.271 1.595c4.301 7.261 8.991 14.114 15.518 19.73 10.511 9.031 21.656 16.946 34.492 22.339 7.393 3.088 15.103 5.066 23.136 4.611a79.907 79.907 0 0012.585-2.106c6.256-1.372 12.506-2.864 18.181-5.976 3.99-2.17 7.511-4.699 9.526-9.127 1.031-2.265 3.297-3.988 5.213-6.158-.641-.631-1.342-1.373-2.095-2.051-7.029-6.343-10.107-14.432-10.418-23.718a6.226 6.226 0 01.39-2.62 6.281 6.281 0 011.42-2.231 96.493 96.493 0 018.78-7.667c4.473-3.662 8.991-5.489 14.646-3.758 12.05-.311 23.744 2.585 35.622 3.87 11.885 1.284 23.671 2.13 35.522 1.053 5.589-.511 11.403-.2 16.754-2.537 1.216-.527 2.828-.287 4.222-.16.799.072 1.863.495 2.114 1.061 1.347 2.984 3.27 6.031 1.512 9.43-1.367 2.633-.951 5.027.232 7.467a155.185 155.185 0 0021.596 33.317 91.193 91.193 0 0010.94 10.595c1.117.949 2.253 1.691 3.812 1.492a2.926 2.926 0 011.737.213 2.895 2.895 0 011.308 1.167c1.758 2.68 1.309 7.555-.971 9.853a8.528 8.528 0 01-2.067 1.731c-4.354 2.106-8.694 4.268-13.173 6.111a6.953 6.953 0 01-8.536-2.721c-2.279-3.302-5.411-5.584-8.099-8.361-7.842-8.105-15.354-16.482-21.544-25.968-.581-.893-1.235-1.739-1.863-2.601-.284-.382-.601-.726-1.143-1.38-2.444 2.8-4.888 5.305-6.983 8.09a19.386 19.386 0 01-7.022 5.744c-4.843 2.457-9.414 5.433-14.151 8.074-6.62 3.693-13.18 7.515-19.945 10.834-6.058 2.952-12.387 5.345-18.63 7.89-7.227 2.952-14.738 5.314-21.688 8.776-8.45 4.236-17.494 6.574-26.327 9.693-3.567 1.269-7.227 2.266-10.867 3.295a20.57 20.57 0 01-4.539.798c-4.743.215-6.798-2.258-5.747-6.837.224-1.04.614-2.038 1.143-2.96 2.609-4.348 4.129-9.294 7.485-13.228 1.849-2.17 3.805-3.518 6.917-3.614a55.686 55.686 0 0010.504-1.739c10.167-2.29 20.043-5.585 29.867-9.039 8.582-3.031 17.249-5.84 25.772-9.039 5.727-2.154 11.263-4.835 16.879-7.284-.047-.247-.106-.503-.159-.75a31.24 31.24 0 01-4.082.614c-4.143.08-8.298.24-12.427 0-8.047-.51-16.113-1.148-23.704-4.283-1.783-.735-3.078-.272-4.419 1.076-8.84 8.88-19.701 14.696-30.839 20.033a107.83 107.83 0 01-23.71 8.472 73.785 73.785 0 01-22.25 1.357c-5.913-.519-11.35-2.202-16.754-4.284-3.416-1.309-7.043-2.123-10.379-3.622-3.871-1.74-7.544-3.941-11.257-6.032a22.625 22.625 0 01-3.772-2.672c-2.015-1.795-3.832-1.596-6.012-.136-15.789 10.523-33.297 16.235-52.039 18.581-6.207.798-12.471 1.164-18.558 2.952-4.628 1.364-9.207 1.077-12.638-3.191a5.236 5.236 0 00-1.485-.958c-3.797-2.178-7.595-4.372-11.409-6.526-5.401-3.055-10.89-5.975-16.212-9.175-2.394-1.451-4.54-3.414-6.79-5.153-3.191-2.466-6.383-4.891-9.574-7.42-2.019-1.635-3.909-3.431-5.848-5.161-6.623-5.912-13.317-11.752-19.835-17.784-3.391-3.135-6.478-6.605-9.694-9.932-1.101-1.141-2.266-2.027-3.989-1.883-7.54.622-15.079 1.181-23.226 1.803zm-50.751 26.559c-4.788-2.314-9.575-4.715-14.41-6.862a31.572 31.572 0 00-8.066-2.68c-9.016-1.277-18.064-2.394-27.127-3.191-7.659-.686-15.367-.941-23.05-1.213-6.088-.223-12.127.431-17.736 2.912a20.783 20.783 0 00-5.585 4.172 3.932 3.932 0 00-1.045 3.192c.582 2.393 1.156 5.05 2.656 6.829a47.153 47.153 0 009.264 8.704c9.9 6.709 21.358 9.574 32.863 11.856 10.819 2.154 21.845 2.68 32.888 2.983 11.92.319 23.616-.63 35.105-3.846 4.388-1.228 4.5-1.714 3.455-6.238-.623-2.713-2.721-4.141-4.245-5.967a57.258 57.258 0 00-7.747-7.181c-.893-.742-2.282-.902-3.622-1.388v1.907l-4.668-1.987 1.07-2.002zm-309.775 4.061c1.1 3.598 3.63 5.329 5.736 7.299 10.994 10.26 24.191 16.603 38.481 20.607 6.382 1.796 12.661 4.293 19.443 4.668 2.928.159 5.809 1.013 8.737 1.3 3.518.343 7.18-.072 10.555.742 3.878.933 7.74.399 11.585.75 4.444.399 8.984-.367 13.476-.279 8.617.175 16.364-2.976 24.207-5.864.175-.064.263-.375.622-.926-.494-1.467-.59-3.685-1.739-4.842a82.006 82.006 0 00-9.264-7.659 27.631 27.631 0 00-4.715-2.394l-13.044-6.207a6.779 6.779 0 00-.998-.358c-2.681-.846-5.537-1.356-8.026-2.601-3.926-1.955-8.059-2.72-12.311-3.144-5.066-.51-10.141-.909-15.207-1.372-4.596-.423-9.231-1.42-13.779-1.149a45.293 45.293 0 01-14.713-1.651 9.467 9.467 0 00-2.393-.295c-2.234 0-4.477.232-6.71.144a103.564 103.564 0 00-21.247 1.411c-2.792.463-5.521 1.141-8.696 1.82zm539.145 9.453c-.687-2.904-1.334-5.52-4.063-6.645-3.27-1.356-6.56-2.912-9.99-3.566-7.324-1.397-14.729-2.529-22.14-3.263-5.992-.591-12.056-.447-18.088-.623-2.13-.064-4.26-.072-6.383-.191-8.633-.471-17.257-.973-25.89-1.436-.755.042-1.505.148-2.243.319 3.432 2.266 6.479 4.228 9.479 6.255 1.261.853 2.33 2.05 3.67 2.736 7.181 3.67 14.362 7.244 21.606 10.795a20.902 20.902 0 0010.372 1.834c3.192-.159 6.383-.438 9.575-.678 5.904-.431 11.84-.654 17.712-1.372a62.931 62.931 0 0016.383-4.165zm209.561-38.733c-1.506-.08-3.35-.215-5.213-.279-8.02-.287-16.06.526-24.093-.646-9.46-1.388-18.987-2.33-28.48-3.495-3.131-.382-6.25-.797-10.015-1.356.462 1.819.541 3.247 1.176 4.38a19.852 19.852 0 007.088 7.787 104.703 104.703 0 0010.557 5.712c6.983 3.119 14.455 4.54 22.019 5.138a71.077 71.077 0 0021.887-1.46c3.191-.742 6.593-.798 9.573-3.12a58.248 58.248 0 01-2.781-5.768 66.737 66.737 0 01-1.718-6.893zM81.249 207.79l33.15 3.12c-3.287-6.638-3.111-10.164.798-14.751 3.678-4.325 7.492-8.529 11.273-12.766a8.26 8.26 0 011.859-1.635c3.863-2.281 7.764-4.499 11.642-6.742.502-.294.989-.622 1.898-1.204h-25.092c-4.843 0-9.686-.104-14.529-.048-2.394 0-3.758 1.317-4.412 3.782a65.077 65.077 0 01-10.149 20.95c-2.035 2.864-4.013 5.784-6.438 9.294zm243.784-9.254v-1.692a14.063 14.063 0 014.492-11.863c2.912-2.768 5.545-5.824 8.417-8.632 4.421-4.3 8.84-8.616 14.298-11.656a11.277 11.277 0 001.46-1.284c-5.96.702-11.473 1.459-17.01 1.978-5.657.535-11.338.99-17.018 1.213a68.553 68.553 0 01-22.157-2.553c-4.954-1.46-9.431-.67-14.25.088 3.806 6.55 34.1 31.545 41.768 34.401zm-61.977-15.956c-4.349-5.848-10.7-9.949-14.218-16.491-6.75-.566-20.114.176-21.854 1.205 5.227 4.149 30.63 14.911 36.072 15.286zm-89.36-12.605l15.438 1.436c-1.596-2.393-2.864-3.567-4.723-3.742-3.766-.375-7.237.965-10.683 2.306h-.032zm223.24-12.765c-1.963-2.13-1.963-2.13-6.599-.391l6.599.391zm-130.833 56.699l.543-.518-1.484-1.34-.367.391 1.308 1.467zM537.977 87.102c-.407.583-.917 1.372-1.468 2.13-4.149 5.633-9.478 9.877-15.239 13.826a49.09 49.09 0 01-14.529 6.933c-13.356 3.79-25.651.519-37.499-5.624-.479-.256-.918-.575-1.397-.838-3.877-2.154-4.539-2.003-7.507 1.308a24.072 24.072 0 01-3.008 2.681c-5.473 4.332-6.981 4.38-12.878.551a28.341 28.341 0 00-2.441-1.444c-3.479-1.812-7.037-3.487-10.428-5.434-3.391-1.947-6.638-4.18-10.268-6.494-.319 3.064-2.266 5.034-4.157 7.021-2.497 2.633-4.978 5.281-7.628 7.762-2.09 1.963-4.26 3.352-7.547 1.987-9.742-4.029-19.611-7.755-29.425-11.632-10.699-4.228-21.462-8.233-32.665-10.978-3.247-.798-6.438-1.802-10.323-2.904 1.834 2.936 4.372 3.247 6.462 4.157a67.247 67.247 0 009.495 3.454c4.468 1.19 6.869 5.792 4.156 9.439-3.598 4.858-7.571 9.621-13.188 12.214-1.596.734-4.269 0-6.096-.798-6.032-2.736-11.832-5.952-17.84-8.728-4.787-2.218-9.048-5.218-13.38-8.145-4.691-3.192-9.574-6.048-14.25-9.255-5.306-3.654-10.451-7.531-15.765-11.376-.208.191-.678.422-.719.718-1.004 6.613-4.108 12.31-8.162 17.431a161.424 161.424 0 01-10.858 12.063c-1.34 1.38-3.463 1.923-4.444 3.846a1.913 1.913 0 01-1.428.654c-3.671.143-6.567 2.305-9.702 3.757a25.989 25.989 0 01-8.163 2.082c-6.693.798-13.076-.941-19.555-1.898-1.954-.288-3.813-1.245-6.335-2.106-1.276 1.427-2.593 3.143-4.141 4.595-2.337 2.186-4.906 3.015-8.05 1.268-5.872-3.262-12.247-5.776-17.736-9.573-11.968-8.281-24.391-16.004-35.465-25.53-6.032-5.194-11.864-10.618-17.792-15.956-.591-.526-1.197-1.03-2.394-2.026.112 1.595 0 2.664.279 3.574 2.945 9.43 5.817 18.884 9.008 28.234 1.165 3.407-.207 5.76-2.066 8.145-2.553 3.264-5.218 6.439-7.772 9.71a6.46 6.46 0 01-7.802 2.17 20.957 20.957 0 01-6.383-4.045c-9.494-8.457-19.013-16.874-29.52-24.134A198.3 198.3 0 0154.26 77.688c-7.659-6.518-16.172-11.8-24.43-17.455-4.564-3.136-9.335-5.984-13.947-9.064-7.116-4.786-8.584-9.909-1.029-17.16 2.912-2.8 6.216-5.194 9.335-7.787 3.12-2.593 4.149-2.689 7.66-.758a18.28 18.28 0 013.606 2.593c13.3 12.166 28.076 22.498 42.015 33.875a135.869 135.869 0 0014.05 10.267c-.255-1.172-.463-2.353-.797-3.502-2.634-9.797-5.139-19.618-7.979-29.35-1.34-4.564-2.13-9.471-5.689-13.117-1.356-1.396-1.252-2.992-.375-4.491a23.46 23.46 0 013.455-4.979c3.94-3.877 8.09-7.547 12.16-11.297 1.507-1.38 2.84-.662 3.845.567 1.787 2.202 3.446 4.516 5.09 6.837 1.804 2.529 3.383 5.225 5.314 7.65 9.925 12.415 21.709 23.001 33.494 33.867-1.014-2.121-2.027-4.236-3.024-6.382-.75-1.596-1.428-3.19-2.218-4.787-2.322-4.595-1.668-9.047.391-13.563a52.822 52.822 0 0110.308-14.99 4.199 4.199 0 013.989-1.245c13.667 2.003 27.303 4.26 41.018 5.808 6.686.75 13.563.311 20.289.088 4.859-.167 9.71-.846 14.554-1.372 1.188-.128 2.338-.599 3.526-.798 1.484-.24 2.984-.35 5.146-.598l9.486-9.725c3.192 1.092 4.62 3.19 5.897 5.4 2.673 4.548 5.281 9.151 7.715 13.834a59.074 59.074 0 008.673 12.71 171.588 171.588 0 0022.651 21.021c1.468-1.483 3.087-2.744 4.189-4.348a8.097 8.097 0 014.883-3.318c5.88-1.596 9.741-5.705 12.653-10.731 2.442-4.212 2.298-8.927 1.165-13.427a10.43 10.43 0 011.389-8.863 68.311 68.311 0 0112.039-13.635c1.875-1.66 2.745-1.324 4.947.36 11.026 8.44 21.885 17.128 33.27 25.05a82.712 82.712 0 0020.553 10.643c-1.715-4.484-3.263-8.457-4.787-12.445-1.045-2.785-2.011-5.585-3.008-8.402a5.97 5.97 0 01.878-6.095c4.268-5.584 9.726-9.75 15.55-13.442 1.317-.838 3.351-.551 5.115-.799 1.595 11.784 5.92 22.402 10.779 32.838a255.053 255.053 0 005.959 11.967c1.979 3.734 3.75 7.715 8.505 9.326-3.191-6.27-2.816-13.036-3.191-19.706a20.19 20.19 0 013.191-11.966c2.538-4.149 5.402-8.098 8.115-12.135 1.1-1.635 2.577-2.114 4.548-1.923 18.084 1.708 36.169 3.37 54.254 4.986 5.529.495 11.082.663 16.619 1.15a20.666 20.666 0 0013.835-3.559c2.274-1.548 4.244-2.106 6.558-.048a6.296 6.296 0 003.383 1.117c8.066.854 16.188 1.348 24.207 2.514 4.325.622 7.587-.168 10.372-3.551 1.732-2.122 3.99-2.393 6.614-1.595 11.386 3.43 23.138 3.909 34.93 4.395 3.87.16 7.74.447 11.609.686.278-.025.557.036.798.176 2.865 2.672 5.218 1.133 7.34-1.005 1.54-1.556 2.848-1.372 4.093.151 1.141 1.397 2.25 2.68 4.253 2.753 7.643.295 15.279.622 22.132.91 1.596-1.804 2.394-3.256 3.646-3.99 4.86-2.96 9.862-5.672 14.783-8.512 3.35-1.931 6.316-1.995 9.738.399a41.728 41.728 0 0023.598 7.475c9.209.176 18.405.527 27.608.67 7.26.112 14.527 0 22.184 0 .073 1.468.449 3.463.152 5.353-.172 1.165-1.202 2.354-2.134 3.192-7.439 6.917-14.937 13.754-22.422 20.63a2.831 2.831 0 00-.958 1.82l3.687-1.364c13.979-5.115 27.872-10.475 41.957-15.247 6.382-2.145 13.153-3.07 19.733-4.619 7.928-1.866 16.034-2.393 24.093-3.303a7.346 7.346 0 003.991-1.524c8.443-7.866 19.152-9.445 29.847-11.328 5.926-1.037 10.854 1.14 16.001 2.992 2.154.797 4.149 1.978 6.23 2.951 1.096.51 2.219 1.285 3.362 1.372 4.598.352 7.452 3.28 10.372 6.327 3.475 3.582 7.181 6.901 10.828 10.372.489.462 1.15.797 1.46 1.388 4.492 7.93 11.971 13.259 17.652 20.088 8.608 10.284 15.823 21.374 18.135 34.833.799 4.65 1.658 9.708-1.196 14.2a13.245 13.245 0 01-2.755 3.447c-8.337 6.382-17.467 10.411-28.262 10.578a88.004 88.004 0 01-39.638-8.775c-8.463-3.989-16.225-9.135-24.107-14.05-3.336-2.074-5.906-5.449-8.628-8.408-3.336-3.622-6.381-7.476-9.691-11.17-1.427-1.595-3.099-2.96-4.79-4.563-3.303 2.298-6.474 4.595-9.731 6.757-12.083 7.978-24.206 15.909-36.262 23.934-1.652 1.094-2.98 2.673-4.526 3.933-4.162 3.391-8.337 6.774-12.591 10.045a4.347 4.347 0 01-4.935.423c-2.253-1.125-4.526-1.923-7.366-1.285-1.361.304-3.991.511-5.292-1.803-.311-.566-1.592-.582-2.847-.973l2.028-3.039c-5.107-3.615-10.319-7.013-15.215-10.827-6.282-4.882-12.354-10.044-18.425-15.158a33.939 33.939 0 01-4.393-4.787 22.824 22.824 0 00-8.43-6.82c-3.984-1.796-3.937-1.86-2.808-5.585-5.245-8.53-10.451-16.914-15.571-25.355a3.072 3.072 0 00-1.381-1.409 3.063 3.063 0 00-1.948-.282c-2.392.295-4.836.63-7.261.798-6.46.518-12.923.973-20.056 1.508 1.436 2.282 2.481 4.236 3.806 5.99 7.651 10.189 15.563 20.153 24.924 28.865 6.039 5.625 12.083 11.17 19.641 14.88 4.611 2.265 4.79 7.498.641 11.839-2.121 2.242-4.413 4.34-6.593 6.533-1.143 1.158-2.101 2.394-4.129 1.995-.529-.111-1.341 1.165-2.134 1.899-6.382-1.364-11.053-6.063-16.139-10.013-9.238-7.18-17.209-15.652-24.653-24.644a8.118 8.118 0 00-1.069-.98c-3.526 4.188-6.957 8.353-10.467 12.445a55.928 55.928 0 01-14.362 11.855c-2.92 1.708-5.721 3.678-8.776 5.138-6.423 3.088-13.165 4.787-20.402 3.678-5.297-.798-10.651-1.404-15.885-2.521-2.106-.455-3.989-2.05-5.944-3.128-1.3-.71-2.521-1.722-3.917-2.05-4.468-1.045-8.266-2.904-10.492-7.18-.12-.231-.304-.583-.487-.606-3.917-.351-5.457-4.237-9.231-6.016zm-308.355-56.38c-.997.797-1.436 1.077-1.835 1.428-3.191 2.712-5.904 6.294-10.939 4.962-.558-.143-1.276.391-1.939.518-5.84 1.118-11.648 2.889-17.552 3.192-10.237.51-20.569.965-30.694-1.7-2.218-.582-4.619-.47-7.978-.797 3.471 5.584 6.103 10.49 9.334 14.942 7.357 10.156 16.484 18.653 26.074 26.647 6.384 5.305 13.03 10.212 20.857 13.148 9.574 3.59 19.3 6.111 29.687 2.992 3.822-1.15 6.232-2.984 6.742-6.99a24.4 24.4 0 00.336-3.19c-.072-4.707-.383-9.422-.272-14.13.136-5.783-1.803-10.762-5.162-15.301-1.524-2.059-3.367-3.894-4.731-6.04-3.271-5.137-6.335-10.371-9.486-15.605l-2.442-4.077zm308.642 4.388c1.277 3.191 2.298 5.584 3.144 7.978a67.144 67.144 0 0011.967 20.599c10.373 12.422 23.394 20.958 39.526 23.742 10.508 1.82 20.01-1.595 28.587-7.65a5.587 5.587 0 001.597-2.713c2.17-6.383 1.771-12.805.127-19.203a8.05 8.05 0 00-1.716-3.191 40.42 40.42 0 01-8.456-14.656 3.192 3.192 0 00-3.264-2.473c-5.808-.343-11.609-.798-17.417-1.18a9.575 9.575 0 00-2.393.621l2.776 1.102-.128.797c-5.952.734-11.768-1.548-17.72-1.428-5.952.12-11.88-.183-17.808-.574-5.96-.391-11.992-1.117-18.822-1.771zm-97.067-2.25c.016.72.101 1.435.255 2.138 1.285 3.127 2.522 6.27 3.99 9.334 8.689 18.597 23.377 31.37 41.137 40.584 12.303 6.383 25.34 7.18 38.297.878 3.558-1.74 3.83-2.154 3.806-6.223 0-5.33-2.074-9.94-4.484-14.56-3.949-7.539-7.619-15.222-11.401-22.84-.582-1.181-1.133-2.394-1.516-3.192-11.968-.798-23.425-1.428-34.851-2.433-11.664-1.014-23.185-2.41-35.233-3.686zm369.529.582c-18.082-1.77-76.687 16.3-88.023 26.981a19.04 19.04 0 001.552 1.764c4.433 3.989 8.773 7.978 13.371 11.8a166.747 166.747 0 0025.706 17.694c2.18 1.221 3.818 1.15 5.913-.23 11.382-7.54 22.6-15.31 32.959-24.238 3.871-3.342 7.491-6.972 11.264-10.507-2.432-7.587-5.51-14.959-2.742-23.264zm31.116 18.023c4.895 5.872 9.308 11.703 14.283 17.008 13.609 14.545 31.056 22.722 49.6 28.841 2.973.981 6.263 1.715 9.983.694-.35-1.576-.8-3.127-1.348-4.643-1.903-4.332-4.254-8.488-5.853-12.924a26.006 26.006 0 00-8.232-11.8c-4.116-3.191-7.181-7.276-10.953-10.738a40.064 40.064 0 00-3.99-2.928c-1.176-1.859-2.022-3.646-3.27-5.09-2.921-3.367-6.442-6.287-8.979-9.9-4.049-5.777-9.836-8.665-16.053-11.098-1.183-.455-2.392-.702-3.799-1.093.8 6.637-.575 10.786-5.08 16.036-1.969 2.353-3.918 4.77-6.296 7.635h-.013zM413.926 89.256l.479-.798a4.778 4.778 0 00-.59-1.491c-3.535-3.878-7.141-7.683-10.66-11.569a10.06 10.06 0 00-5.84-3.367 47.534 47.534 0 01-9-2.201c-10.547-4.212-20.999-8.664-31.475-13.06a44.654 44.654 0 01-6.957-3.255c-5.585-3.566-10.994-7.404-16.508-11.081-2.441-1.596-4.971-3.12-7.396-4.636L310.82 56.467a1531.5 1531.5 0 019.223 2.265c8.776 2.178 17.553 4.237 26.329 6.575 7.54 2.018 15.024 4.284 22.492 6.573a161.46 161.46 0 0112.231 4.268c2.856 1.133 5.497 2.808 8.345 3.99 5.753 2.353 11.553 4.555 17.362 6.757 2.337.853 4.747 1.563 7.124 2.361zm296.33-44.039c4.671-3.239 14.937-13.929 15.882-16.298h-24.496c.171.78.409 1.543.706 2.281 2.57 4.587 5.16 9.15 7.908 14.017zM428.145 64.564l.718-.518-3.726-5.353-.798.534a12.31 12.31 0 003.806 5.337z" fill="#FFDE40"/></svg>