<svg width="112" height="112" viewBox="0 0 112 112" fill="none" xmlns="http://www.w3.org/2000/svg"><rect width="112" height="112" rx="28" fill="#FA9214"/><rect x="7" y="7" width="98" height="98" rx="24.5" fill="#FA9214"/><circle cx="31.495" cy="80.502" r="9.466" stroke="#fff" stroke-width="5.568"/><circle cx="80.495" cy="80.502" r="9.466" stroke="#fff" stroke-width="5.568"/><path d="M58.442 25.373h1.386c4.295 0 6.442 0 8.183.781a8.909 8.909 0 013.773 3.2c1.055 1.59 1.406 3.708 2.108 7.945l5.375 32.462M41.293 80.17h29.4" stroke="#fff" stroke-width="5.568"/><path d="M21.697 21.703h13.542c5.016 0 8.913.947 11.69 2.843 2.779 1.895 4.167 4.902 4.167 9.02 0 2.26-.385 4.21-1.157 5.85a10.522 10.522 0 01-3.299 4.046c-1.389 1.057-3.086 1.84-5.093 2.351-1.967.474-4.167.71-6.597.71H28.7v14.38h-7.003v-39.2zm7.002 5.74v13.395h6.25c2.817 0 5.036-.529 6.656-1.586s2.43-2.879 2.43-5.467c0-2.223-.752-3.827-2.256-4.811-1.466-1.02-3.646-1.53-6.54-1.53H28.7z" fill="#fff"/></svg>