<svg width="362" height="112" viewBox="0 0 362 112" fill="none" xmlns="http://www.w3.org/2000/svg"><path fill-rule="evenodd" clip-rule="evenodd" d="M216.159 58.699H141v-6h75.159v6z" fill="#21201F"/><path fill-rule="evenodd" clip-rule="evenodd" d="M211.916 55.698L193.46 37.243 197.703 33l22.698 22.698-22.698 22.698-4.243-4.242 18.456-18.456zm74.281 24.866c3.296 0 5.968-2.68 5.968-5.987 0-3.306-2.672-5.987-5.968-5.987s-5.967 2.68-5.967 5.987 2.671 5.987 5.967 5.987zm0 5.142c6.127 0 11.093-4.983 11.093-11.129s-4.966-11.129-11.093-11.129c-6.126 0-11.093 4.983-11.093 11.13 0 6.145 4.967 11.128 11.093 11.128zm41.087-5.142c3.296 0 5.968-2.68 5.968-5.987s-2.672-5.987-5.968-5.987-5.968 2.68-5.968 5.987c0 3.306 2.672 5.987 5.968 5.987zm0 5.142c6.127 0 11.093-4.983 11.093-11.13 0-6.145-4.966-11.128-11.093-11.128-6.126 0-11.093 4.983-11.093 11.129s4.967 11.129 11.093 11.129z" fill="#21201F"/><path fill-rule="evenodd" clip-rule="evenodd" d="M303.078 22.996h11.205c4.032 0 7.48 2.908 8.173 6.892l6.475 37.205-5.048.884-6.475-37.205a3.175 3.175 0 00-3.125-2.634h-11.205v-5.142zM292.909 72.05h27.102v5.142h-27.102V72.05zM250 26.84C250 12.017 261.978 0 276.753 0h12.66v5.142h-12.66c-11.945 0-21.628 9.715-21.628 21.698v12.7H250v-12.7zm111.667 0c0-14.823-11.978-26.84-26.753-26.84h-12.66v5.142h12.66c11.945 0 21.628 9.714 21.628 21.698v12.7h5.125v-12.7zM250.001 85.16c0 14.823 11.978 26.84 26.753 26.84h12.659v-5.142h-12.659c-11.945 0-21.628-9.714-21.628-21.698v-12.7h-5.125v12.7zm111.999 0c0 14.823-11.978 26.84-26.753 26.84h-12.66v-5.142h12.66c11.945 0 21.628-9.714 21.628-21.698v-12.7H362v12.7z" fill="#21201F"/><path d="M.593 56.128C.593 25.503 25.419.677 56.044.677c30.626 0 55.452 24.826 55.452 55.451s-24.826 55.453-55.451 55.453C25.418 111.581.593 86.753.593 56.128z" fill="#fff"/><path fill-rule="evenodd" clip-rule="evenodd" d="M65.287 33.684c0 2.905-2.377 5.281-5.281 5.281-2.905 0-5.281-2.376-5.281-5.28 0-2.905 2.376-5.282 5.28-5.282 2.905 0 5.282 2.377 5.282 5.281zM43.476 82.033l6.76-34.09-4.753 1.849v6.337a2.648 2.648 0 01-2.64 2.64 2.648 2.648 0 01-2.641-2.64V49.87a5.31 5.31 0 013.221-4.885l10.113-4.278c2.562-1.082 5.52-.132 6.998 2.218l2.64 4.225c1.77 3.116 5.097 5.492 9.11 6.152 1.294.212 2.245 1.294 2.245 2.588 0 1.611-1.426 2.879-3.01 2.64-4.595-.739-8.688-3.089-11.513-6.363l-1.584 7.922 3.908 3.723a5.252 5.252 0 011.637 3.829v14.893a2.648 2.648 0 01-2.64 2.64 2.648 2.648 0 01-2.641-2.64V69.332L53.14 64.05l-4.277 19.065a2.653 2.653 0 01-2.588 2.06h-.211c-1.664 0-2.931-1.533-2.588-3.143z" fill="#21201F"/></svg>