<svg width="362" height="112" viewBox="0 0 362 112" fill="none" xmlns="http://www.w3.org/2000/svg"><mask id="a" maskUnits="userSpaceOnUse" x="0" y="0" width="112" height="112"><path fill-rule="evenodd" clip-rule="evenodd" d="M72.952 0C84.196 0 89.817 0 95.87 1.913a23.79 23.79 0 0114.218 14.218C112 22.183 112 27.805 112 39.048v33.904c0 11.244 0 16.865-1.913 22.917a23.789 23.789 0 01-14.218 14.217C89.817 112 84.196 112 72.952 112H39.048c-11.244 0-16.866 0-22.917-1.914A23.786 23.786 0 011.913 95.869C0 89.817 0 84.196 0 72.952V39.048C0 27.805 0 22.182 1.913 16.13A23.787 23.787 0 0116.131 1.913C22.183 0 27.804 0 39.048 0h33.904z" fill="#C4C4C4"/></mask><g mask="url(#a)"><path fill="url(#paint0_linear)" d="M0 56h56.001v56.001H0z"/><path fill="url(#paint1_radial)" d="M56.002 56.001h56.001v56.001H56.002z"/><path fill="url(#paint2_linear)" d="M0 0h112.002v56.001H0z"/></g><mask id="b" maskUnits="userSpaceOnUse" x="250" y="0" width="112" height="112"><path fill-rule="evenodd" clip-rule="evenodd" d="M322.952 0c11.244 0 16.865 0 22.917 1.913a23.79 23.79 0 0114.218 14.218C362 22.183 362 27.805 362 39.048v33.904c0 11.244 0 16.865-1.913 22.917a23.789 23.789 0 01-14.218 14.217C339.817 112 334.196 112 322.952 112h-33.904c-11.244 0-16.865 0-22.917-1.914a23.789 23.789 0 01-14.218-14.217C250 89.817 250 84.196 250 72.952V39.048c0-11.243 0-16.866 1.913-22.917a23.79 23.79 0 0114.218-14.218C272.183 0 277.804 0 289.048 0h33.904z" fill="#C4C4C4"/></mask><g clip-path="url(#clip0)" mask="url(#b)"><path d="M250 0h112v112H250V0z" fill="#F1F0ED"/><path fill-rule="evenodd" clip-rule="evenodd" d="M251.461-10.43c-8.023-1.39-15.458-1.343-22.107-.403a28.983 28.983 0 00-2.291 7.312l-12.949 74.835c-1.954 11.297 2.902 22.19 11.603 28.49 8.084-3.075 16.767-7.583 25.941-14.05 42.962-30.278 52.9-86.997-.197-96.185z" fill="#3F4042"/><path fill-rule="evenodd" clip-rule="evenodd" d="M334.72 35.854c4.578-26.461-4.179-43.047-20.554-53.771l-53.542-9.264c-13.211-2.286-25.878 4.745-31.276 16.347 6.65-.946 14.078-.987 22.107.402 53.091 9.187 43.153 65.906.196 96.192-9.173 6.467-17.862 10.967-25.94 14.05a28.891 28.891 0 0012.061 5.079l29.993 5.19c34.785-13.565 61.303-41.56 66.955-74.225z" fill="#5780EA"/><path d="M335.614 103.42h-4.235v12.706h43.766c7.017 0 12.706-5.688 12.706-12.706h-52.237z" fill="#5C5A57"/><path d="M317.261 75.184h19.765l14.119 28.236c0 7.017-5.689 12.706-12.707 12.706h-21.177V75.184z" fill="#21201F"/><path d="M322.655-9.457a8.766 8.766 0 1117.451 1.675l-17.451-1.675zm-7.798 81.235l7.798-81.235 17.451 1.675-7.798 81.235-17.451-1.675z" fill="#FCB900"/><path d="M322.626 55.134L327.85.03" stroke="#FAF9F7" stroke-width="6.743" stroke-linecap="round"/><path fill-rule="evenodd" clip-rule="evenodd" d="M324.038 129.397c7.485-.002 13.551-12.137 13.551-27.106 0-14.97-6.068-27.107-13.553-27.107h-8.065c-8.02 0-14.522 12.136-14.522 27.107s6.502 27.107 14.522 27.107h8.067v-.001z" fill="#42413E"/><ellipse cx="326.298" cy="102.29" rx="6.777" ry="13.553" fill="#EDECE8"/><path d="M392.087 100.279a4.046 4.046 0 010 8.092v-8.092zm-56.473-27.014V69.22h2.402l1.15 2.109-3.552 1.937zm-22.589 4.046a4.045 4.045 0 010-8.092v8.092zm40.28 26.876l-1.278 3.838 1.278-3.838zm-1.976-2.111l-3.551 1.937 3.551-1.937zm.99 1.525l2.758-2.96-2.758 2.96zm39.768 4.77h-36.969v-8.092h36.969v8.092zm-44.309-4.358l-15.715-28.81 7.103-3.875 15.715 28.811-7.103 3.874zm-12.164-26.702h-22.589v-8.092h22.589v8.092zm19.504 31.06c-.651 0-1.906.049-3.091-.346l2.556-7.677c-.247-.082-.408-.084-.32-.079.048.003.134.006.285.008.152.002.33.002.57.002v8.092zm-.237-8.232c.115.21.2.366.275.499.074.132.118.205.144.247.046.074-.033-.066-.223-.244l-5.516 5.92c-.914-.851-1.472-1.976-1.783-2.548l7.103-3.874zm-2.854 7.886a6.732 6.732 0 01-2.466-1.464l5.516-5.92a1.348 1.348 0 00-.494-.293l-2.556 7.677z" fill="#FCB900"/></g><path fill-rule="evenodd" clip-rule="evenodd" d="M216.159 58.699H141v-6h75.159v6z" fill="#21201F"/><path fill-rule="evenodd" clip-rule="evenodd" d="M211.916 55.698L193.46 37.243 197.703 33l22.698 22.698-22.698 22.698-4.243-4.242 18.456-18.456z" fill="#21201F"/><defs><linearGradient id="paint0_linear" x1="87.914" y1="5.755" x2="113.236" y2="113.553" gradientUnits="userSpaceOnUse"><stop stop-color="#FEFEFE"/><stop offset=".27" stop-color="#F9F8F7"/><stop offset="1" stop-color="#EAE3CF"/></linearGradient><linearGradient id="paint2_linear" x1="0" y1="0" x2="82.3" y2="180.193" gradientUnits="userSpaceOnUse"><stop stop-color="#FCE000"/><stop offset=".472" stop-color="#FAAA00"/><stop offset="1" stop-color="#FCE000"/></linearGradient><radialGradient id="paint1_radial" cx="0" cy="0" r="1" gradientUnits="userSpaceOnUse" gradientTransform="rotate(-87.02 123.646 40.11) scale(131.58)"><stop offset=".404" stop-color="#302F28"/><stop offset=".566" stop-color="#282724"/><stop offset=".689" stop-color="#272623"/><stop offset=".891" stop-color="#242321"/></radialGradient><clipPath id="clip0"><path d="M250 0h112v112H250V0z" fill="#fff"/></clipPath></defs></svg>