<svg width="345" height="357" viewBox="0 0 345 357" fill="none" xmlns="http://www.w3.org/2000/svg"><path fill-rule="evenodd" clip-rule="evenodd" d="M105.592 35.437C68.295 15.355 27.73 6.315 2.997 6.027L0 5.992.07 0l2.996.035c25.78.3 67.29 9.623 105.368 30.126 24.649 13.271 48.053 31.337 64.794 54.856 14.015-19.242 35.935-29.85 59.531-30.196 38.416-.562 80.512 26.002 100.139 84.778 11.729 35.126 14.927 75.756 9.617 113.659-5.307 37.876-19.155 73.316-41.811 97.833l-2.034 2.201-4.403-4.067 2.034-2.201c21.581-23.352 35.082-57.512 40.278-94.597 5.192-37.058 2.048-76.748-9.367-110.93-18.952-56.756-59.011-81.202-94.365-80.684-22.37.328-43.161 10.618-56.021 29.504 7.415 11.471 13.261 24.166 16.967 38.152 5.057 19.08 5.473 34.128 3.098 44.729-2.318 10.349-7.65 17.527-14.929 18.328-7.321.805-13.983-5.113-18.317-14.886-4.436-10.005-7.037-25.108-5.933-45.446.864-15.907 5.175-29.596 11.952-40.811-16.127-23.476-39.274-41.594-64.072-54.946zm67.742 60.58c-5.442 9.913-8.893 21.798-9.637 35.502-1.073 19.763 1.501 33.837 5.428 42.693 4.03 9.088 8.922 11.715 12.182 11.357 3.302-.363 7.579-4.056 9.735-13.68 2.1-9.372 1.857-23.397-3.043-41.885-3.269-12.335-8.295-23.649-14.665-33.986z" fill="#21201F"/><path fill-rule="evenodd" clip-rule="evenodd" d="M297.064 350.161l28.723-4.446.917 5.922L292.058 357l-5.364-34.638 5.923-.917 4.447 28.716z" fill="#21201F"/></svg>