<svg width="81" height="65" viewBox="0 0 81 65" fill="none" xmlns="http://www.w3.org/2000/svg">
<path d="M0.320263 0.98877H54.1711V2.54343H0.320263V0.98877Z" fill="#8C0052"/>
<path d="M0.320263 53.3289H54.1711V54.8835H0.320263V53.3289Z" fill="#8C0052"/>
<path d="M15.3364 11.094H80.3198V12.6487H15.3364V11.094Z" fill="#8C0052"/>
<path d="M1.50566 1.34758L17.1334 11.4459L16.2908 12.752L0.663071 2.65366L1.50566 1.34758Z" fill="#8C0052"/>
<path d="M1.37294 53.7406L16.4066 63.8357L15.3535 64.9785L0.319824 54.8834L1.37294 53.7406Z" fill="#8C0052"/>
<path d="M53.9597 53.7402L80.0718 63.4563L79.0187 64.5991L52.9066 54.8831L53.9597 53.7402Z" fill="#8C0052"/>
<path d="M54.1668 1.00338L80.3198 11.095L79.7685 12.3963L53.6153 2.45677L54.1668 1.00338Z" fill="#8C0052"/>
<path d="M15.3364 63.4341H80.3198V64.9888H15.3364V63.4341Z" fill="#8C0052"/>
<path d="M15.3364 64.9888V11.094H16.8897L16.8898 64.9888H15.3364Z" fill="#8C0052"/>
<path d="M0.320263 54.8835V0.98877L1.87365 0.98877L1.87365 54.8835H0.320263Z" fill="#8C0052"/>
<path d="M78.7664 64.9888V11.094H80.3198V64.9888H78.7664Z" fill="#8C0052"/>
<path d="M52.6177 54.8835L52.6177 0.98877H54.1711V54.8835H52.6177Z" fill="#8C0052"/>
</svg>
