<svg width="950" height="258" viewBox="0 0 950 258" fill="none" xmlns="http://www.w3.org/2000/svg">
<path d="M493.125 160.074C493.535 160.727 493.995 161.348 494.497 161.933C500.082 167.214 505.739 172.456 511.34 177.745C515.13 181.319 518.64 185.236 522.685 188.5C527.946 192.901 533.69 196.688 539.808 199.789C542.538 201.163 545.185 202.695 547.738 204.376C552.92 207.776 558.773 210.021 564.9 210.958C565.092 211.452 565.252 211.876 565.403 212.298C567.565 218.257 567.621 218.329 562.682 222.159C559.714 224.456 556.563 226.547 553.435 228.637C552.335 229.311 551.156 229.847 549.924 230.233C549.66 230.314 549.382 230.339 549.108 230.308C548.833 230.276 548.568 230.188 548.329 230.049C546.039 228.182 543.278 227.313 540.638 226.172C529.126 221.101 518.224 214.744 508.141 207.224C496.724 198.871 486.311 189.345 475.875 179.9C471.041 175.519 466.214 171.124 461.514 166.6C459.759 164.901 458.427 162.778 456.615 160.497H441.376C443.339 161.845 444.568 162.97 445.964 163.608C451.687 166.177 457.445 168.658 463.237 171.052C465.767 172.089 467.227 175.511 466.309 177.833C469.221 181.176 472.149 184.215 474.742 187.598C476.818 190.301 478.685 193.157 480.327 196.143C483.088 201.105 482.434 203.889 478.245 208.109C474.256 212.099 469.277 214.676 464.498 217.508C455.163 223.044 444.703 225.231 434.251 227.417C424.916 229.379 415.438 229.865 405.952 229.922C393.01 230.108 380.096 228.694 367.503 225.709C363.29 224.672 360.761 226.092 358.072 228.533C357.22 229.165 356.42 229.864 355.678 230.624C352.854 234.221 348.801 233.703 344.971 233.958C344.615 234.01 344.253 233.924 343.958 233.719C341.525 231.206 338.006 230.951 335.118 229.379C333.666 228.581 332.269 227.703 330.833 226.874C330.136 226.425 329.402 226.035 328.639 225.709C320.032 222.548 311.749 218.565 303.906 213.814C297.807 210.015 291.945 205.848 286.353 201.336C281.997 197.889 277.536 194.571 273.068 191.252C271.146 189.816 270.675 189.96 269.471 191.899C269.151 192.393 268.872 192.919 268.521 193.382C268.184 193.755 267.822 194.105 267.436 194.427C271.002 198.416 274.002 202.629 278.43 205.597C279.387 206.227 279.819 207.703 280.409 208.788C280.736 209.402 280.792 210.168 281.127 210.766C282.827 213.782 282.571 216.766 280.058 218.896C275.821 222.494 271.449 225.94 267.125 229.443C266.675 229.832 266.176 230.159 265.641 230.416C256.21 234.676 247.074 239.622 236.718 241.585C225.963 243.604 215.176 245.079 204.238 243.811C201.405 243.484 199.195 244.019 197.568 246.627C196.54 248.077 195.34 249.394 193.993 250.552C192.892 251.613 191.687 252.802 189.948 252.148C188.616 251.638 188.002 253.847 186.477 252.779C185.448 252.061 184.084 251.845 182.831 251.422C180.127 250.488 177.35 249.747 174.725 248.614C165.885 244.8 156.263 244.178 147.079 241.745C146.614 241.686 146.153 241.598 145.699 241.481C139.675 239.017 133.109 239.774 127.476 238.154C126.678 240.141 126.303 241.992 125.282 243.332C122.29 247.242 118.955 250.887 115.899 254.757C115.436 255.44 114.788 255.977 114.031 256.305C113.273 256.633 112.438 256.738 111.623 256.608C110.935 256.449 110.218 256.468 109.54 256.664C108.016 257.39 106.924 257.006 105.662 255.994C104.705 255.196 103.373 254.932 102.208 254.398C102.104 254.35 101.977 254.334 101.881 254.278C97.5563 251.662 93.2721 248.997 88.9159 246.452C85.7243 244.609 82.6603 242.463 79.2455 241.33C77.3072 240.684 76.2376 238.833 73.9082 238.705C72.1047 238.602 70.2456 237.109 68.666 235.905C65.9772 233.863 63.0811 233.511 59.8897 234.11C58.3738 234.389 56.8579 234.684 55.326 234.852C53.9175 235.048 52.4935 235.11 51.0734 235.035C46.2862 234.644 44.9937 232.562 46.7809 228.126C47.5229 226.284 48.5282 224.552 49.3341 222.932C49.0548 222.438 48.983 222.135 48.8075 222.047C43.4539 219.271 39.1375 215.019 34.095 211.811C28.0712 207.974 22.8213 203.195 17.4517 198.52C14.3481 195.823 10.8136 193.613 7.6062 191.029C4.48107 188.659 2.08651 185.457 0.696799 181.79C0.2528 180.751 0.0927054 179.612 0.232885 178.491C0.373067 177.369 0.808493 176.306 1.49466 175.408C2.63559 173.9 3.84832 172.456 5.02915 170.98C6.62483 168.946 8.18069 166.823 9.91202 164.893C11.5662 162.887 13.4395 161.073 15.497 159.483C18.864 157.09 24.9356 158.598 27.5446 162.308C29.9861 165.778 31.9169 169.639 34.5338 172.975C37.9057 177.242 41.5235 181.31 45.3687 185.157C48.1357 187.75 51.0673 190.162 54.1451 192.377C58.8312 196.004 63.5571 199.581 68.3232 203.107C70.9796 205.07 71.5147 204.926 73.6208 202.485C76.4292 199.294 78.3523 195.711 78.3199 191.316C78.3199 188.356 78.9026 185.324 78.4236 182.46C77.7267 178.991 76.6868 175.6 75.32 172.336C74.5701 170.366 74.5226 168.722 75.8148 167.046C77.6018 164.653 79.1979 162.164 81.1765 159.978C83.8012 157.09 86.6895 154.434 89.5223 151.737C91.5802 149.775 92.8335 149.767 95.1067 151.546C96.1201 152.343 97.086 153.197 98.2982 154.21C99.597 153.163 100.838 152.048 102.016 150.867C104.266 148.37 106.955 147.804 110.091 148.626C111.687 149.049 113.33 149.36 114.918 149.838C121.787 151.912 128.856 152.463 135.973 152.63C145.204 152.846 154.444 153.205 163.683 153.181C169.004 153.181 174.326 152.535 179.64 152.176C180.593 152.171 181.528 151.908 182.345 151.417C183.162 150.925 183.832 150.223 184.283 149.384C184.859 148.484 185.493 147.623 186.182 146.807C188.233 144.03 188.209 143.759 185.488 140.999L187.379 138.039C189.43 138.972 191.225 139.794 193.028 140.592C193.655 140.898 194.313 141.135 194.99 141.302C203.814 143.057 212.544 145.29 221.623 145.57C229.195 145.769 236.782 146.543 244.314 147.062C244.553 147.062 244.825 147.253 245.008 147.174C250.593 144.971 255.883 148.123 261.34 148.043C261.931 148.043 262.601 148.306 263.103 148.107C266.741 146.695 270.475 147.54 274.178 147.485C279.101 147.405 284.023 147.006 288.938 146.783C290.701 146.711 292.504 146.966 294.228 146.671C298.097 146.016 302.206 146.368 305.533 143.48C308.126 141.198 311.326 141.214 314.31 142.307C317.541 143.488 320.541 143.105 323.709 142.307C327.267 141.445 330.889 140.879 334.647 140.161C335.637 142.514 338.637 144.15 336.131 147.341C340.707 147.971 345.336 148.113 349.942 147.764C359.381 146.886 368.668 144.987 378.034 143.775C383.683 143.041 389.244 141.94 394.846 141.03C396.621 140.814 398.24 139.909 399.353 138.51C401.524 135.838 404.126 133.548 407.052 131.736C407.882 131.166 408.823 130.779 409.813 130.599C410.803 130.419 411.82 130.45 412.797 130.691C414.423 131.029 415.99 131.604 417.449 132.398C422.643 135.486 428.379 136.93 434.204 138.063C436.541 138.517 438.791 140.113 441.384 138.964C441.703 138.821 442.341 139.49 442.86 139.762C443.379 140.033 443.969 140.4 444.456 140.328C449.243 139.627 453.743 141.294 458.331 142.187C458.865 142.408 459.414 142.589 459.974 142.73C463.963 142.921 467.953 142.993 471.99 143.216C473.745 143.32 475.484 143.783 477.24 143.911C482.825 144.302 488.338 145.442 493.859 143.687C494.51 143.42 495.219 143.327 495.918 143.416C498.838 144.165 501.734 145.012 504.694 143.591C504.799 143.529 504.924 143.506 505.045 143.527C508.659 144.964 512.306 143.464 515.928 143.615C518.018 143.703 520.603 144.572 522.071 143.615C524.026 142.402 525.59 143.36 527.257 143.057C528.742 142.694 530.135 142.029 531.35 141.102C535.73 138.071 535.619 138.166 540.047 140.911C541.284 141.709 543.19 141.605 544.778 141.557C547.842 141.469 550.898 141.126 553.818 140.903C557.576 147.285 557.368 148.083 550.419 153.356C552.398 155.534 554.36 157.688 556.315 159.851C558.621 162.396 561.023 164.861 563.193 167.517C564.088 168.757 565.303 169.73 566.708 170.333C568.113 170.936 569.656 171.145 571.172 170.94C584.062 169.796 597.033 169.882 609.907 171.196C614.83 171.674 619.721 172.464 624.644 172.942C627.564 173.222 630.524 173.07 633.42 173.278C639.803 173.732 646.186 174.298 652.52 174.817L659.805 175.431C658.257 170.645 657.005 166.13 655.305 161.765C653.215 156.396 654.97 152.742 659.494 149.671C662.423 147.676 665.006 145.187 667.741 142.913C669.815 141.19 672.068 140.073 674.876 140.304C688.227 141.437 701.572 142.626 714.937 143.607C725.309 144.405 735.76 145.012 746.178 145.41C752.923 145.666 759.688 145.355 766.447 145.41C768.587 145.44 770.714 145.619 772.828 145.945C775.22 146.296 775.854 147.198 775.55 149.631C775.114 153.078 772.749 155.127 769.822 156.316C762.324 159.372 754.615 161.59 746.363 161.358C733.91 161.015 721.457 160.976 709.011 160.481C702.266 160.209 695.547 159.244 688.822 158.638C686.595 158.43 684.356 158.35 681.898 158.199C681.911 158.741 682.004 159.279 682.169 159.794C686.47 167.055 691.16 173.908 697.687 179.524C708.198 188.555 719.343 196.47 732.179 201.863C739.572 204.951 747.282 206.929 755.315 206.474C759.563 206.109 763.764 205.404 767.9 204.368C774.156 202.996 780.406 201.504 786.081 198.392C790.071 196.222 793.592 193.693 795.607 189.265C796.638 187 798.904 185.277 800.82 183.107C800.179 182.476 799.478 181.734 798.725 181.056C791.696 174.713 788.618 166.624 788.307 157.338C788.248 156.447 788.38 155.554 788.697 154.718C789.007 153.882 789.49 153.122 790.117 152.487C792.885 149.757 795.819 147.197 798.897 144.82C803.37 141.158 807.888 139.331 813.543 141.062C825.593 140.751 837.287 143.647 849.165 144.932C861.05 146.216 872.836 147.062 884.687 145.985C890.276 145.474 896.09 145.785 901.441 143.448C902.657 142.921 904.269 143.161 905.663 143.288C906.462 143.36 907.526 143.783 907.777 144.349C909.124 147.333 911.047 150.38 909.289 153.779C907.922 156.412 908.338 158.806 909.521 161.246C915.262 173.23 922.522 184.427 931.117 194.563C934.46 198.392 938.12 201.936 942.057 205.158C943.174 206.107 944.31 206.849 945.869 206.65C946.457 206.542 947.065 206.617 947.606 206.863C948.155 207.11 948.611 207.517 948.914 208.03C950.672 210.71 950.223 215.585 947.943 217.883C947.349 218.565 946.655 219.15 945.876 219.614C941.522 221.72 937.182 223.882 932.703 225.725C931.19 226.35 929.498 226.42 927.939 225.922C926.374 225.424 925.039 224.391 924.167 223.004C921.888 219.702 918.756 217.42 916.068 214.643C908.226 206.538 900.714 198.161 894.524 188.675C893.943 187.782 893.289 186.936 892.661 186.074C892.377 185.692 892.06 185.348 891.518 184.694C889.074 187.494 886.63 189.999 884.535 192.784C882.686 195.226 880.274 197.194 877.513 198.528C872.67 200.985 868.099 203.961 863.362 206.602C856.742 210.295 850.182 214.117 843.417 217.436C837.359 220.388 831.03 222.781 824.787 225.326C817.56 228.278 810.049 230.64 803.099 234.102C794.649 238.338 785.605 240.676 776.772 243.795C773.205 245.064 769.545 246.061 765.905 247.09C764.425 247.525 762.906 247.793 761.366 247.888C756.623 248.103 754.568 245.63 755.619 241.051C755.843 240.011 756.233 239.013 756.762 238.091C759.371 233.743 760.891 228.797 764.247 224.863C766.096 222.693 768.052 221.345 771.164 221.249C774.711 221.006 778.232 220.424 781.668 219.51C791.835 217.22 801.711 213.925 811.535 210.471C820.117 207.44 828.784 204.631 837.307 201.432C843.034 199.278 848.57 196.597 854.186 194.148C854.139 193.901 854.08 193.645 854.027 193.398C852.68 193.692 851.319 193.898 849.945 194.012C845.802 194.092 841.647 194.252 837.518 194.012C829.471 193.502 821.405 192.864 813.814 189.729C812.031 188.994 810.736 189.457 809.395 190.805C800.555 199.685 789.694 205.501 778.556 210.838C771.012 214.578 763.051 217.422 754.846 219.31C747.539 220.887 740.034 221.344 732.596 220.667C726.683 220.148 721.246 218.465 715.842 216.383C712.426 215.074 708.799 214.26 705.463 212.761C701.592 211.021 697.919 208.82 694.206 206.729C692.865 205.971 691.596 205.075 690.434 204.057C688.419 202.262 686.602 202.461 684.422 203.921C668.633 214.444 651.125 220.156 632.383 222.502C626.176 223.3 619.912 223.666 613.825 225.454C609.197 226.818 604.618 226.531 601.187 222.263C600.75 221.862 600.248 221.538 599.702 221.305C595.905 219.127 592.107 216.933 588.293 214.779C582.892 211.724 577.403 208.804 572.081 205.604C569.687 204.153 567.541 202.19 565.291 200.451C562.1 197.985 558.908 195.56 555.717 193.031C553.698 191.396 551.808 189.6 549.869 187.87C543.246 181.958 536.552 176.118 530.034 170.086C526.643 166.951 523.556 163.481 520.34 160.154C519.239 159.013 518.074 158.127 516.351 158.271C508.811 158.893 501.272 159.452 493.125 160.074ZM442.374 186.633C437.586 184.319 432.799 181.918 427.964 179.771C425.409 178.518 422.695 177.617 419.898 177.091C410.882 175.814 401.834 174.697 392.771 173.9C385.112 173.214 377.404 172.959 369.721 172.687C363.633 172.464 357.594 173.118 351.985 175.599C349.901 176.666 348.013 178.076 346.4 179.771C346.001 180.194 345.7 180.698 345.519 181.25C345.339 181.802 345.282 182.387 345.355 182.963C345.937 185.356 346.511 188.013 348.011 189.792C350.692 193.098 353.808 196.026 357.275 198.496C367.175 205.205 378.633 208.07 390.138 210.352C400.957 212.506 411.983 213.032 423.026 213.335C434.946 213.654 446.642 212.705 458.131 209.489C462.519 208.261 462.631 207.775 461.586 203.251C460.963 200.538 458.865 199.11 457.341 197.284C454.986 194.657 452.392 192.253 449.594 190.103C448.701 189.361 447.312 189.201 445.972 188.715V190.622L441.304 188.635L442.374 186.633ZM132.599 190.694C133.699 194.292 136.229 196.023 138.335 197.993C149.329 208.253 162.526 214.596 176.816 218.6C183.198 220.396 189.477 222.893 196.259 223.268C199.187 223.427 202.068 224.281 204.996 224.568C208.514 224.911 212.176 224.496 215.551 225.31C219.429 226.243 223.291 225.709 227.136 226.06C231.58 226.459 236.12 225.693 240.612 225.781C249.229 225.956 256.976 222.805 264.819 219.917C264.994 219.853 265.082 219.542 265.441 218.991C264.947 217.524 264.851 215.306 263.702 214.149C260.806 211.373 257.709 208.813 254.438 206.49C252.947 205.543 251.368 204.742 249.723 204.096L236.679 197.889C236.356 197.744 236.023 197.624 235.681 197.531C233 196.685 230.144 196.175 227.655 194.93C223.729 192.975 219.596 192.21 215.344 191.786C210.278 191.276 205.203 190.877 200.137 190.414C195.541 189.991 190.906 188.994 186.358 189.265C181.396 189.526 176.426 188.967 171.645 187.614C170.863 187.414 170.059 187.315 169.252 187.319C167.018 187.319 164.775 187.551 162.542 187.463C155.429 187.202 148.31 187.675 141.295 188.874C138.503 189.337 135.774 190.015 132.599 190.694ZM671.744 200.147C671.057 197.243 670.41 194.627 667.681 193.502C664.411 192.146 661.121 190.59 657.691 189.936C650.367 188.539 642.962 187.407 635.551 186.673C629.559 186.082 623.495 186.226 617.463 186.05C615.333 185.986 613.203 185.978 611.08 185.859C602.447 185.388 593.823 184.886 585.19 184.423C584.435 184.465 583.685 184.571 582.947 184.742C586.379 187.008 589.426 188.97 592.426 190.997C593.687 191.85 594.756 193.047 596.096 193.733C603.277 197.403 610.458 200.977 617.702 204.528C620.947 206.015 624.517 206.646 628.074 206.362C631.266 206.203 634.457 205.924 637.649 205.684C643.553 205.253 649.489 205.03 655.361 204.312C660.982 203.667 666.492 202.267 671.744 200.147ZM881.305 161.414C879.799 161.334 877.955 161.199 876.092 161.135C868.072 160.848 860.032 161.661 851.999 160.489C842.539 159.101 833.012 158.159 823.519 156.994C820.388 156.612 817.269 156.197 813.504 155.638C813.966 157.457 814.045 158.885 814.68 160.018C816.298 163.205 818.749 165.895 821.768 167.805C825.177 169.909 828.698 171.817 832.325 173.517C839.308 176.636 846.78 178.057 854.344 178.655C861.671 179.304 869.057 178.811 876.231 177.195C879.422 176.453 882.824 176.397 885.804 174.075C884.773 172.204 883.842 170.279 883.023 168.307C882.329 166.041 881.754 163.74 881.305 161.414ZM81.2485 207.79L114.399 210.91C111.112 204.272 111.288 200.746 115.197 196.159C118.875 191.834 122.689 187.63 126.47 183.393C127.004 182.758 127.631 182.206 128.329 181.758C132.192 179.477 136.093 177.259 139.971 175.016C140.473 174.722 140.96 174.394 141.869 173.812C133.093 173.812 124.939 173.812 116.777 173.812C111.934 173.812 107.091 173.708 102.248 173.764C99.854 173.764 98.4898 175.081 97.8358 177.546C95.7396 185.083 92.3016 192.179 87.6871 198.496C85.6523 201.36 83.6737 204.28 81.2485 207.79ZM325.033 198.536C325.033 197.738 325.033 197.307 325.033 196.844C324.8 194.654 325.085 192.438 325.865 190.378C326.645 188.317 327.899 186.468 329.525 184.981C332.437 182.213 335.07 179.157 337.942 176.349C342.363 172.049 346.782 167.733 352.24 164.693C352.763 164.308 353.251 163.878 353.7 163.409C347.74 164.111 342.227 164.868 336.69 165.387C331.033 165.922 325.352 166.377 319.672 166.6C312.196 166.964 304.712 166.102 297.515 164.047C292.561 162.587 288.084 163.377 283.265 164.135C287.071 170.685 317.365 195.68 325.033 198.536ZM263.056 182.58C258.707 176.732 252.356 172.631 248.838 166.089C242.088 165.523 228.724 166.265 226.984 167.294C232.211 171.443 257.614 182.205 263.056 182.58ZM173.696 169.975L189.134 171.411C187.538 169.018 186.27 167.844 184.411 167.669C180.645 167.294 177.174 168.634 173.728 169.975H173.696ZM396.936 157.21C394.973 155.08 394.973 155.08 390.337 156.819L396.936 157.21ZM266.103 213.909L266.646 213.391L265.162 212.051L264.795 212.442L266.103 213.909Z" fill="#FFDE40"/>
<path d="M537.977 87.1022C537.57 87.6848 537.06 88.4743 536.509 89.2326C532.36 94.8648 527.031 99.1091 521.27 103.058C516.842 106.153 511.932 108.495 506.741 109.991C493.385 113.781 481.09 110.51 469.242 104.367C468.763 104.111 468.324 103.792 467.845 103.529C463.968 101.375 463.306 101.526 460.338 104.837C459.412 105.813 458.406 106.71 457.33 107.518C451.857 111.85 450.349 111.898 444.452 108.069C443.655 107.55 442.857 107.063 442.011 106.625C438.532 104.813 434.974 103.138 431.583 101.191C428.192 99.2445 424.945 97.0111 421.315 94.697C420.996 97.7608 419.049 99.7314 417.158 101.718C414.661 104.351 412.18 106.999 409.53 109.48C407.44 111.443 405.27 112.832 401.983 111.467C392.241 107.438 382.372 103.712 372.558 99.8351C361.859 95.6067 351.096 91.6021 339.893 88.8574C336.646 88.0594 333.455 87.0546 329.57 85.9534C331.404 88.8891 333.942 89.2002 336.032 90.1099C339.106 91.4978 342.28 92.6525 345.527 93.5641C349.995 94.7532 352.396 99.3562 349.683 103.003C346.085 107.861 342.112 112.624 336.495 115.217C334.899 115.951 332.226 115.217 330.399 114.419C324.367 111.683 318.567 108.467 312.559 105.691C307.772 103.473 303.511 100.473 299.179 97.5455C294.488 94.3542 289.605 91.4984 284.929 88.2913C279.623 84.6369 274.478 80.7599 269.164 76.9146C268.956 77.1061 268.486 77.3373 268.445 77.6326C267.441 84.2458 264.337 89.9427 260.283 95.0643C256.868 99.265 253.244 103.291 249.425 107.127C248.085 108.507 245.962 109.05 244.981 110.973C244.803 111.177 244.584 111.341 244.338 111.454C244.091 111.567 243.824 111.626 243.553 111.627C239.882 111.77 236.986 113.932 233.851 115.384C231.261 116.517 228.504 117.221 225.688 117.466C218.995 118.264 212.612 116.525 206.133 115.568C204.179 115.28 202.32 114.323 199.798 113.462C198.522 114.889 197.205 116.605 195.657 118.057C193.32 120.243 190.751 121.072 187.607 119.325C181.735 116.063 175.36 113.549 169.871 109.752C157.903 101.471 145.48 93.7477 134.406 84.222C128.374 79.0284 122.542 73.6037 116.614 68.2661C116.023 67.7396 115.417 67.2369 114.22 66.2401C114.332 67.8354 114.22 68.9042 114.499 69.8139C117.444 79.2438 120.316 88.6975 123.507 98.0482C124.672 101.455 123.3 103.808 121.441 106.193C118.888 109.457 116.223 112.632 113.669 115.903C112.811 117.1 111.569 117.967 110.15 118.362C108.731 118.756 107.22 118.655 105.867 118.073C103.512 117.123 101.349 115.752 99.4836 114.028C89.9896 105.571 80.4712 97.1544 69.9631 89.8945C64.5283 86.0908 59.2878 82.017 54.2614 77.6881C46.602 71.17 38.0889 65.8886 29.831 60.2326C25.2673 57.0968 20.4962 54.249 15.8845 51.1693C8.76768 46.3827 7.29961 41.2604 14.8553 34.0085C17.7675 31.2082 21.0706 28.8149 24.1902 26.2221C27.3098 23.6293 28.339 23.5335 31.8496 25.4644C33.1526 26.1785 34.3636 27.0498 35.456 28.0572C48.7562 40.2233 63.5324 50.555 77.4712 61.9317C81.9305 65.6508 86.623 69.0806 91.521 72.1993C91.266 71.0267 91.0585 69.8456 90.7236 68.6968C88.0903 58.9002 85.5852 49.0792 82.7451 39.3461C81.4046 34.7827 80.6145 29.8758 77.0563 26.23C75.7 24.8342 75.8038 23.2382 76.6811 21.7386C77.6126 19.9366 78.774 18.2633 80.1356 16.7604C84.0769 12.8828 88.2264 9.21317 92.2952 5.46299C93.8028 4.08301 95.1353 4.80108 96.1408 6.02978C97.9278 8.23153 99.5873 10.5456 101.231 12.8669C103.035 15.3956 104.614 18.0922 106.545 20.5179C116.47 32.9317 128.254 43.5184 140.039 54.3844C139.025 52.2626 138.012 50.148 137.015 48.0018C136.265 46.4065 135.587 44.8111 134.797 43.2151C132.475 38.6201 133.129 34.1683 135.188 29.6525C137.731 24.097 141.219 19.0249 145.496 14.6617C145.994 14.124 146.625 13.7263 147.325 13.5077C148.025 13.2897 148.77 13.258 149.485 13.4172C163.152 15.4201 176.788 17.6773 190.503 19.2251C197.189 19.9755 204.066 19.5362 210.792 19.313C215.651 19.1458 220.502 18.4674 225.346 17.9409C226.534 17.8134 227.684 17.3424 228.872 17.1429C230.356 16.9038 231.856 16.7921 234.018 16.5451L243.504 6.81984C246.696 7.91246 248.124 10.0105 249.401 12.2208C252.074 16.7683 254.682 21.3714 257.116 26.0543C259.441 30.6507 262.356 34.9234 265.789 38.7634C272.691 46.4375 280.273 53.4735 288.44 59.7854C289.908 58.3017 291.527 57.0413 292.629 55.4374C293.781 53.7562 295.524 52.5711 297.512 52.1186C303.392 50.5233 307.253 46.4144 310.165 41.3879C312.607 37.176 312.463 32.4607 311.33 27.9614C310.887 26.4738 310.782 24.9062 311.022 23.3723C311.263 21.8391 311.842 20.3785 312.719 19.0976C316.106 14.0368 320.155 9.45098 324.758 5.46299C326.633 3.80358 327.503 4.13917 329.705 5.82235C340.731 14.2627 351.59 22.9508 362.975 30.8733C369.294 35.3666 376.212 38.9497 383.528 41.5161C381.813 37.032 380.265 33.0592 378.741 29.0705C377.696 26.2862 376.73 23.4859 375.733 20.6691C375.311 19.6697 375.171 18.5738 375.325 17.4996C375.48 16.4262 375.924 15.4141 376.611 14.5739C380.879 8.98989 386.337 4.82486 392.161 1.1315C393.478 0.293866 395.512 0.580557 397.276 0.333496C398.871 12.1171 403.196 22.7355 408.055 33.1708C409.937 37.213 411.924 41.2023 414.014 45.1381C415.993 48.8718 417.764 52.8525 422.519 54.4644C419.328 48.1934 419.703 41.4282 419.328 34.7582C419.112 30.5338 420.228 26.3476 422.519 22.7916C425.057 18.6431 427.921 14.6941 430.634 10.6572C431.734 9.0216 433.211 8.54266 435.182 8.73424C453.266 10.4419 471.351 12.1039 489.436 13.7204C494.965 14.2152 500.518 14.383 506.055 14.8692C510.943 15.3653 515.848 14.1042 519.89 11.3112C522.164 9.76344 524.134 9.20524 526.448 11.263C527.445 11.9533 528.619 12.3411 529.831 12.38C537.897 13.2342 546.019 13.7283 554.038 14.8936C558.363 15.5159 561.625 14.7258 564.41 11.3429C566.142 9.22109 568.4 8.9496 571.024 9.74759C582.41 13.178 594.162 13.657 605.954 14.1432C609.824 14.303 613.694 14.5904 617.563 14.8295C617.841 14.8038 618.12 14.8652 618.361 15.0052C621.226 17.6773 623.579 16.1382 625.701 13.9998C627.241 12.4441 628.549 12.6278 629.794 14.1511C630.935 15.5476 632.044 16.8318 634.047 16.9038C641.69 17.1991 649.326 17.5261 656.179 17.8134C657.775 16.01 658.573 14.558 659.825 13.8241C664.685 10.8646 669.687 8.15159 674.608 5.31171C677.958 3.3808 680.924 3.31739 684.346 5.71071C691.276 10.5317 699.501 13.1384 707.944 13.186C717.153 13.3617 726.349 13.7125 735.552 13.8565C742.812 13.9681 750.079 13.8565 757.736 13.8565C757.809 15.3243 758.185 17.3186 757.888 19.2092C757.716 20.3739 756.686 21.5629 755.754 22.4006C748.315 29.3176 740.817 36.1547 733.332 43.0315C732.797 43.4952 732.454 44.1452 732.374 44.8508L736.061 43.4866C750.04 38.3723 763.933 33.0116 778.018 28.2402C784.4 26.0946 791.171 25.1691 797.751 23.6213C805.679 21.7545 813.785 21.228 821.844 20.3184C823.298 20.2166 824.685 19.6862 825.835 18.7944C834.278 10.9281 844.987 9.34859 855.682 7.4659C861.608 6.42877 866.536 8.60675 871.683 10.4577C873.837 11.2551 875.832 12.4362 877.913 13.4092C879.009 13.9199 880.132 14.6941 881.275 14.7813C885.873 15.1327 888.727 18.0605 891.647 21.1084C895.122 24.6902 898.828 28.009 902.475 31.4797C902.964 31.9421 903.625 32.2771 903.935 32.8676C908.427 40.798 915.906 46.127 921.587 52.9562C930.195 63.2403 937.41 74.3297 939.722 87.7886C940.521 92.4398 941.38 97.4973 938.526 101.989C937.806 103.285 936.875 104.45 935.771 105.436C927.434 111.818 918.304 115.847 907.509 116.014C893.794 116.219 880.225 113.214 867.871 107.239C859.408 103.25 851.646 98.1037 843.764 93.1895C840.428 91.1153 837.858 87.7403 835.136 84.7809C831.8 81.1589 828.755 77.305 825.445 73.6116C824.018 72.0156 822.346 70.6515 820.655 69.0482C817.352 71.3458 814.181 73.6433 810.924 75.8054C798.841 83.7834 786.718 91.7138 774.662 99.7393C773.01 100.833 771.682 102.412 770.136 103.672C765.974 107.063 761.799 110.446 757.545 113.717C756.864 114.282 756.025 114.625 755.147 114.701C754.261 114.776 753.376 114.581 752.61 114.14C750.357 113.015 748.084 112.217 745.244 112.855C743.883 113.159 741.253 113.366 739.952 111.052C739.641 110.486 738.36 110.47 737.105 110.079L739.133 107.04C734.026 103.425 728.814 100.027 723.918 96.2131C717.636 91.3306 711.564 86.1688 705.493 81.0552C703.881 79.6045 702.408 78.0019 701.1 76.2678C698.88 73.3507 695.987 71.0108 692.67 69.4472C688.686 67.6517 688.733 67.5883 689.862 63.8626C684.617 55.3337 679.411 46.9488 674.291 38.5084C674 37.9 673.512 37.4052 672.91 37.0994C672.309 36.7935 671.629 36.6944 670.962 36.8166C668.57 37.1119 666.126 37.4469 663.701 37.6146C657.241 38.1332 650.778 38.5877 643.645 39.1228C645.081 41.4045 646.126 43.3591 647.451 45.1137C655.102 55.302 663.014 65.2663 672.375 73.9782C678.414 79.6032 684.458 85.1475 692.016 88.8574C696.627 91.1232 696.806 96.3564 692.657 100.697C690.536 102.939 688.244 105.037 686.064 107.23C684.921 108.388 683.963 109.624 681.935 109.225C681.406 109.114 680.594 110.39 679.801 111.124C673.419 109.76 668.748 105.061 663.662 101.111C654.424 93.9314 646.453 85.4586 639.009 76.4673C638.683 76.1093 638.325 75.781 637.94 75.4864C634.414 79.6745 630.983 83.8395 627.473 87.9319C623.382 92.6584 618.528 96.6656 613.111 99.7875C610.191 101.495 607.39 103.465 604.335 104.925C597.912 108.013 591.17 109.712 583.933 108.603C578.636 107.805 573.282 107.199 568.048 106.082C565.942 105.627 564.059 104.032 562.104 102.954C560.804 102.244 559.583 101.232 558.187 100.904C553.719 99.8589 549.921 98 547.695 93.724C547.575 93.4928 547.391 93.1413 547.208 93.1175C543.291 92.7668 541.751 88.8812 537.977 87.1022ZM229.622 30.7214C228.625 31.5194 228.186 31.7988 227.787 32.1496C224.596 34.8619 221.883 38.4443 216.848 37.1119C216.29 36.9686 215.572 37.503 214.909 37.6305C209.069 38.7476 203.261 40.5186 197.357 40.8218C187.12 41.3325 176.788 41.7869 166.663 39.1228C164.445 38.5401 162.044 38.6518 158.685 38.3248C162.156 43.9094 164.788 48.8156 168.019 53.2674C175.376 63.4233 184.503 71.9198 194.093 79.9143C200.477 85.2195 207.123 90.1257 214.95 93.0621C224.524 96.6517 234.25 99.1732 244.637 96.0539C248.459 94.9044 250.869 93.07 251.379 89.0648C251.561 88.0099 251.673 86.9436 251.715 85.8735C251.643 81.1668 251.332 76.4515 251.443 71.7448C251.579 65.9606 249.64 60.9824 246.281 56.4428C244.757 54.3844 242.914 52.5493 241.55 50.4037C238.279 45.2656 235.215 40.0317 232.064 34.7985L229.622 30.7214ZM538.264 35.1097C539.541 38.301 540.562 40.6943 541.408 43.0876C544.137 50.6124 548.19 57.5883 553.375 63.6869C563.748 76.1086 576.769 84.6448 592.901 87.4292C603.409 89.2485 612.911 85.8339 621.488 79.7782C622.269 79.0456 622.824 78.1043 623.085 77.0658C625.255 70.6832 624.856 64.2609 623.212 57.8631C622.89 56.6826 622.303 55.5913 621.496 54.6718C617.675 50.4374 614.793 45.4433 613.04 40.0159C612.872 39.2866 612.453 38.6392 611.856 38.1874C611.26 37.7349 610.524 37.507 609.776 37.5426C603.968 37.1998 598.167 36.7453 592.359 36.3622C591.538 36.4652 590.733 36.6746 589.966 36.9844L592.742 38.0856L592.614 38.883C586.662 39.6169 580.846 37.3352 574.894 37.4554C568.942 37.575 563.014 37.2718 557.086 36.8807C551.126 36.4897 545.094 35.7637 538.264 35.1097ZM441.197 32.8597C441.213 33.5791 441.298 34.2952 441.452 34.998C442.737 38.1253 443.974 41.2684 445.442 44.3322C454.131 62.9292 468.819 75.7017 486.579 84.9163C498.882 91.2989 511.919 92.0963 524.876 85.7936C528.434 84.0549 528.706 83.64 528.682 79.5708C528.682 74.2418 526.608 69.6302 524.198 65.0114C520.249 57.472 516.579 49.7893 512.797 42.1701C512.215 40.9896 511.664 39.7768 511.281 38.9788C499.313 38.1808 487.856 37.5506 476.43 36.5458C464.766 35.5325 453.245 34.136 441.197 32.8597ZM810.726 33.4423C792.644 31.6713 734.039 49.7411 722.703 60.4235C723.185 61.0425 723.7 61.6311 724.255 62.1867C728.688 66.176 733.028 70.1646 737.626 73.9861C745.62 80.674 754.228 86.5982 763.332 91.6814C765.512 92.9022 767.15 92.8302 769.245 91.4502C780.627 83.9109 791.845 76.1403 802.204 67.2131C806.075 63.8705 809.695 60.2406 813.468 56.7057C811.036 49.1188 807.958 41.7473 810.726 33.4423ZM841.842 51.4646C846.737 57.3366 851.15 63.1683 856.125 68.4735C869.734 83.0178 887.181 91.1952 905.725 97.3143C908.698 98.2952 911.988 99.0292 915.708 98.0079C915.358 96.4317 914.908 94.8807 914.36 93.3653C912.457 89.0331 910.106 84.8767 908.507 80.4408C906.928 75.812 904.074 71.723 900.275 68.6413C896.159 65.45 893.094 61.3649 889.322 57.9027C888.053 56.8445 886.719 55.8668 885.332 54.975C884.156 53.1161 883.31 51.3292 882.062 49.8851C879.141 46.5181 875.62 43.5983 873.083 39.9842C869.034 34.208 863.247 31.3199 857.03 28.8869C855.847 28.4318 854.638 28.1847 853.231 27.7936C854.031 34.4313 852.656 38.5798 848.151 43.8295C846.182 46.1832 844.233 48.6003 841.855 51.4646H841.842ZM413.926 89.2564L414.405 88.4584C414.294 87.9312 414.094 87.4272 413.815 86.9668C410.28 83.0891 406.674 79.2841 403.155 75.3985C401.654 73.638 399.591 72.449 397.315 72.0315C394.251 71.5928 391.237 70.8549 388.315 69.8297C377.768 65.6178 367.316 61.166 356.84 56.7698C354.432 55.8866 352.104 54.7979 349.883 53.5151C344.298 49.9485 338.889 46.1112 333.375 42.4337C330.934 40.8377 328.404 39.3137 325.979 37.7983L310.82 56.4666C314.099 57.2646 317.075 57.9906 320.043 58.7324C328.819 60.9104 337.596 62.9688 346.372 65.3066C353.912 67.3247 361.396 69.5906 368.864 71.8802C372.989 73.1406 377.082 74.5609 381.095 76.1483C383.951 77.2812 386.592 78.9564 389.44 80.1376C395.193 82.4913 400.993 84.693 406.802 86.8948C409.139 87.7483 411.549 88.4584 413.926 89.2564ZM710.256 45.2174C714.927 41.9785 725.193 31.2882 726.138 28.9186H701.642C701.813 29.6988 702.051 30.4618 702.348 31.2003C704.918 35.7874 707.508 40.3508 710.256 45.2174ZM428.145 64.5641L428.863 64.0456L425.137 58.6928L424.339 59.2272C425.102 61.3173 426.417 63.1617 428.145 64.5641Z" fill="#FFDE40"/>
</svg>
