<svg width="218" height="319" viewBox="0 0 218 319" fill="none" xmlns="http://www.w3.org/2000/svg">
<path fill-rule="evenodd" clip-rule="evenodd" d="M183.556 158.553C214.29 124.566 226.885 71.6052 196.22 2.29155L199.873 0.694946C231.066 71.2004 218.469 125.879 186.524 161.205C163.287 186.901 129.948 202.198 96.2638 205.922C102.939 216.846 106.586 229.483 108.357 242.293C111.9 267.929 108.003 294.669 105.666 310.703C105.516 311.726 105.374 312.706 105.239 313.64L101.289 313.079C101.421 312.159 101.561 311.196 101.707 310.194C104.047 294.12 107.867 267.889 104.403 242.833C102.591 229.719 98.8045 217.041 91.8209 206.346C80.8497 207.226 69.8873 206.874 59.2706 205.249C37.1554 201.864 22.0312 197.342 12.7851 192.709C8.17914 190.401 4.87522 187.989 2.9312 185.542C0.953019 183.052 0.218652 180.262 1.45832 177.639C2.60913 175.203 5.21058 173.505 8.41125 172.392C11.6794 171.255 15.9316 170.597 20.9603 170.496C31.0322 170.294 44.5302 172.321 60.216 177.612C75.4963 182.766 86.2918 191.499 93.8147 202.189C127.264 198.962 160.559 183.985 183.556 158.553ZM89.1503 202.562C82.1178 193.34 72.3476 185.893 58.9335 181.368C43.5832 176.19 30.552 174.271 21.0408 174.462C16.278 174.558 12.4751 175.181 9.72958 176.136C6.91659 177.114 5.54575 178.319 5.07053 179.325C4.68416 180.142 4.67002 181.33 6.06318 183.084C7.49052 184.88 10.2091 186.976 14.5816 189.167C23.2925 193.532 37.9492 197.972 59.878 201.329C69.4338 202.791 79.2782 203.191 89.1503 202.562Z" fill="#21201F"/>
<path fill-rule="evenodd" clip-rule="evenodd" d="M89.2169 301.738L92.3687 299.305L103.171 313.129L117.08 302.393L119.528 305.525L102.467 318.695L89.2169 301.738Z" fill="#21201F"/>
</svg>
